<?xml version="1.0" standalone="no"?><svg xmlns:xlink="http://www.w3.org/1999/xlink" xmlns="http://www.w3.org/2000/svg" viewBox="0 0 1000 555.5628143986411" preserveAspectRatio="xMaxYMax slice"><g transform="scale(1.3065917554060233)"><rect x="0" y="0" width="765.36" height="425.20000000000005" fill="#ffffff"/><rect x="0" y="0" width="42.52" height="42.52" fill="#ffffff"/><rect x="0" y="0" width="21.26" height="21.26" fill="#5be218"/><path d="M 0 21.26 A 21.26 21.26 0 0 0 21.26 0 L 0 0L0 21.26" fill="#fff533"/><rect x="21.26" y="0" width="21.26" height="21.26" fill="#fff533"/><path d="M 21.26 0 A 21.26 21.26 0 0 1  42.52 21.26 L 21.26 0 A 21.26 21.26 0 0 0 42.52 21.26" fill="#fff533"/><rect x="0" y="21.26" width="21.26" height="21.26" fill="#fff533"/><path d="M 0 42.52 A 21.26 21.26 0 0 1  21.26 21.26 L 0 42.52 A 21.26 21.26 0 0 0 21.26 21.26" fill="#fff533"/><rect x="21.26" y="21.26" width="21.26" height="21.26" fill="#fff533"/><path d="M 21.26 42.52 A 21.26 21.26 0 0 0 42.52 21.26 L 21.26 21.26L21.26 42.52" fill="#fff533"/><rect x="42.52" y="0" width="42.52" height="42.52" fill="#ffffff"/><rect x="42.52" y="0" width="21.26" height="21.26" fill="#fff533"/><path d="M 42.52 0 A 21.26 21.26 0 0 0 63.78 21.26 L 63.78 0L42.52 0" fill="#5be218"/><rect x="63.78" y="0" width="21.26" height="21.26" fill="#5be218"/><path d="M 63.78 21.26 A 21.26 21.26 0 0 1  85.04 0 L 63.78 21.26 A 21.26 21.26 0 0 0 85.04 0" fill="#fff533"/><rect x="42.52" y="21.26" width="21.26" height="21.26" fill="#fff533"/><path d="M 42.52 42.52 A 21.26 21.26 0 0 0 63.78 21.26 L 42.52 21.26L42.52 42.52" fill="#fff533"/><rect x="63.78" y="21.26" width="21.26" height="21.26" fill="#fff533"/><path d="M 63.78 21.26 A 21.26 21.26 0 0 0 85.04 42.52 L 85.04 21.26L63.78 21.26" fill="#5be218"/><rect x="85.04" y="0" width="42.52" height="42.52" fill="#5be218"/><path d="M 85.04 0 A 42.52 42.52 0 0 1  127.56 42.52 L 85.04 0 A 42.52 42.52 0 0 0 127.56 42.52" fill="#fff533"/><rect x="127.56" y="0" width="42.52" height="42.52" fill="#ffffff"/><rect x="127.56" y="0" width="21.26" height="21.26" fill="#5be218"/><path d="M 127.56 0 A 21.26 21.26 0 0 0 148.82 21.26 L 148.82 0L127.56 0" fill="#fff533"/><rect x="148.82" y="0" width="21.26" height="21.26" fill="#5be218"/><path d="M 148.82 21.26 A 21.26 21.26 0 0 1  170.07999999999998 0 L 148.82 21.26 A 21.26 21.26 0 0 0 170.07999999999998 0" fill="#5be218"/><rect x="127.56" y="21.26" width="21.26" height="21.26" fill="#5be218"/><path d="M 127.56 21.26 A 21.26 21.26 0 0 0 148.82 42.52 L 148.82 21.26L127.56 21.26" fill="#fff533"/><rect x="148.82" y="21.26" width="21.26" height="21.26" fill="#5be218"/><path d="M 148.82 21.26 A 21.26 21.26 0 0 0 170.07999999999998 42.52 L 170.07999999999998 21.26L148.82 21.26" fill="#5be218"/><rect x="170.08" y="0" width="42.52" height="42.52" fill="#5be218"/><path d="M 170.08 42.52 A 42.52 42.52 0 0 1  212.60000000000002 0 L 170.08 42.52 A 42.52 42.52 0 0 0 212.60000000000002 0" fill="#5be218"/><rect x="212.60000000000002" y="0" width="42.52" height="42.52" fill="#ffffff"/><rect x="212.6" y="0" width="21.26" height="21.26" fill="#5be218"/><path d="M 212.6 0 A 21.26 21.26 0 0 1  233.85999999999999 21.26 L 212.6 0 A 21.26 21.26 0 0 0 233.85999999999999 21.26" fill="#5be218"/><rect x="233.86" y="0" width="21.26" height="21.26" fill="#fff533"/><path d="M 233.86 21.26 A 21.26 21.26 0 0 0 255.12 0 L 233.86 0L233.86 21.26" fill="#5be218"/><rect x="212.6" y="21.26" width="21.26" height="21.26" fill="#fff533"/><path d="M 212.6 21.26 A 21.26 21.26 0 0 1  233.85999999999999 42.52 L 212.6 21.26 A 21.26 21.26 0 0 0 233.85999999999999 42.52" fill="#fff533"/><rect x="233.86" y="21.26" width="21.26" height="21.26" fill="#5be218"/><path d="M 233.86 42.52 A 21.26 21.26 0 0 1  255.12 21.26 L 233.86 42.52 A 21.26 21.26 0 0 0 255.12 21.26" fill="#fff533"/><rect x="255.12" y="0" width="42.52" height="42.52" fill="#ffffff"/><rect x="255.12" y="0" width="21.26" height="21.26" fill="#5be218"/><path d="M 255.12 0 A 21.26 21.26 0 0 1  276.38 21.26 L 255.12 0 A 21.26 21.26 0 0 0 276.38 21.26" fill="#5be218"/><rect x="276.38" y="0" width="21.26" height="21.26" fill="#fff533"/><path d="M 276.38 21.26 A 21.26 21.26 0 0 1  297.64 0 L 276.38 21.26 A 21.26 21.26 0 0 0 297.64 0" fill="#5be218"/><rect x="255.12" y="21.26" width="21.26" height="21.26" fill="#fff533"/><path d="M 255.12 42.52 A 21.26 21.26 0 0 0 276.38 21.26 L 255.12 21.26L255.12 42.52" fill="#fff533"/><rect x="276.38" y="21.26" width="21.26" height="21.26" fill="#fff533"/><path d="M 276.38 42.52 A 21.26 21.26 0 0 0 297.64 21.26 L 276.38 21.26L276.38 42.52" fill="#fff533"/><rect x="297.64" y="0" width="42.52" height="42.52" fill="#5be218"/><path d="M 297.64 42.52 A 42.52 42.52 0 0 1  340.15999999999997 0 L 297.64 42.52 A 42.52 42.52 0 0 0 340.15999999999997 0" fill="#fff533"/><rect x="340.16" y="0" width="42.52" height="42.52" fill="#ffffff"/><rect x="340.16" y="0" width="21.26" height="21.26" fill="#fff533"/><path d="M 340.16 21.26 A 21.26 21.26 0 0 0 361.42 0 L 340.16 0L340.16 21.26" fill="#5be218"/><rect x="361.42" y="0" width="21.26" height="21.26" fill="#5be218"/><path d="M 361.42 0 A 21.26 21.26 0 0 1  382.68 21.26 L 361.42 0 A 21.26 21.26 0 0 0 382.68 21.26" fill="#5be218"/><rect x="340.16" y="21.26" width="21.26" height="21.26" fill="#5be218"/><path d="M 340.16 42.52 A 21.26 21.26 0 0 1  361.42 21.26 L 361.42 42.52L340.16 42.52" fill="#fff533"/><rect x="361.42" y="21.26" width="21.26" height="21.26" fill="#fff533"/><path d="M 361.42 21.26 A 21.26 21.26 0 0 1  382.68 42.52 L 361.42 21.26 A 21.26 21.26 0 0 0 382.68 42.52" fill="#fff533"/><rect x="382.68" y="0" width="42.52" height="42.52" fill="#5be218"/><path d="M 382.68 0 A 42.52 42.52 0 0 0 425.2 42.52 L 425.2 0L382.68 0" fill="#5be218"/><rect x="425.2" y="0" width="42.52" height="42.52" fill="#5be218"/><path d="M 425.2 0 A 42.52 42.52 0 0 0 467.71999999999997 42.52 L 467.71999999999997 0L425.2 0" fill="#fff533"/><rect x="467.72" y="0" width="42.52" height="42.52" fill="#5be218"/><path d="M 467.72 42.52 A 42.52 42.52 0 0 0 510.24 0 L 467.72 0L467.72 42.52" fill="#5be218"/><rect x="510.24" y="0" width="42.52" height="42.52" fill="#ffffff"/><rect x="510.24" y="0" width="21.26" height="21.26" fill="#fff533"/><path d="M 510.24 21.26 A 21.26 21.26 0 0 1  531.5 0 L 510.24 21.26 A 21.26 21.26 0 0 0 531.5 0" fill="#5be218"/><rect x="531.5" y="0" width="21.26" height="21.26" fill="#fff533"/><path d="M 531.5 0 A 21.26 21.26 0 0 0 552.76 21.26 L 552.76 0L531.5 0" fill="#fff533"/><rect x="510.24" y="21.26" width="21.26" height="21.26" fill="#5be218"/><path d="M 510.24 21.26 A 21.26 21.26 0 0 1 531.5 42.52 L 510.24 42.52L510.24 21.26" fill="#5be218"/><rect x="531.5" y="21.26" width="21.26" height="21.26" fill="#5be218"/><path d="M 531.5 42.52 A 21.26 21.26 0 0 0 552.76 21.26 L 531.5 21.26L531.5 42.52" fill="#fff533"/><rect x="552.76" y="0" width="42.52" height="42.52" fill="#fff533"/><path d="M 552.76 0 A 42.52 42.52 0 0 1  595.28 42.52 L 552.76 0 A 42.52 42.52 0 0 0 595.28 42.52" fill="#fff533"/><rect x="595.28" y="0" width="42.52" height="42.52" fill="#fff533"/><path d="M 595.28 0 A 42.52 42.52 0 0 1 637.8 42.52 L 595.28 42.52L595.28 0" fill="#5be218"/><rect x="637.8000000000001" y="0" width="42.52" height="42.52" fill="#ffffff"/><rect x="637.8" y="0" width="21.26" height="21.26" fill="#fff533"/><path d="M 637.8 21.26 A 21.26 21.26 0 0 1  659.06 0 L 659.06 21.26L637.8 21.26" fill="#5be218"/><rect x="659.06" y="0" width="21.26" height="21.26" fill="#fff533"/><path d="M 659.06 21.26 A 21.26 21.26 0 0 0 680.3199999999999 0 L 659.06 0L659.06 21.26" fill="#5be218"/><rect x="637.8" y="21.26" width="21.26" height="21.26" fill="#5be218"/><path d="M 637.8 21.26 A 21.26 21.26 0 0 1 659.06 42.52 L 637.8 42.52L637.8 21.26" fill="#5be218"/><rect x="659.06" y="21.26" width="21.26" height="21.26" fill="#5be218"/><path d="M 659.06 21.26 A 21.26 21.26 0 0 1  680.3199999999999 42.52 L 659.06 21.26 A 21.26 21.26 0 0 0 680.3199999999999 42.52" fill="#fff533"/><rect x="680.32" y="0" width="42.52" height="42.52" fill="#ffffff"/><rect x="680.32" y="0" width="21.26" height="21.26" fill="#fff533"/><path d="M 680.32 0 A 21.26 21.26 0 0 1  701.58 21.26 L 680.32 0 A 21.26 21.26 0 0 0 701.58 21.26" fill="#fff533"/><rect x="701.58" y="0" width="21.26" height="21.26" fill="#fff533"/><path d="M 701.58 0 A 21.26 21.26 0 0 1 722.84 21.26 L 701.58 21.26L701.58 0" fill="#fff533"/><rect x="680.32" y="21.26" width="21.26" height="21.26" fill="#fff533"/><path d="M 680.32 42.52 A 21.26 21.26 0 0 1  701.58 21.26 L 680.32 42.52 A 21.26 21.26 0 0 0 701.58 21.26" fill="#5be218"/><rect x="701.58" y="21.26" width="21.26" height="21.26" fill="#5be218"/><path d="M 701.58 42.52 A 21.26 21.26 0 0 0 722.84 21.26 L 701.58 21.26L701.58 42.52" fill="#5be218"/><rect x="722.84" y="0" width="42.52" height="42.52" fill="#ffffff"/><rect x="722.84" y="0" width="21.26" height="21.26" fill="#5be218"/><path d="M 722.84 21.26 A 21.26 21.26 0 0 0 744.1 0 L 722.84 0L722.84 21.26" fill="#fff533"/><rect x="744.1" y="0" width="21.26" height="21.26" fill="#fff533"/><path d="M 744.1 21.26 A 21.26 21.26 0 0 0 765.36 0 L 744.1 0L744.1 21.26" fill="#5be218"/><rect x="722.84" y="21.26" width="21.26" height="21.26" fill="#fff533"/><path d="M 722.84 42.52 A 21.26 21.26 0 0 1  744.1 21.26 L 744.1 42.52L722.84 42.52" fill="#5be218"/><rect x="744.1" y="21.26" width="21.26" height="21.26" fill="#5be218"/><path d="M 744.1 42.52 A 21.26 21.26 0 0 1  765.36 21.26 L 744.1 42.52 A 21.26 21.26 0 0 0 765.36 21.26" fill="#5be218"/><rect x="0" y="42.52" width="42.52" height="42.52" fill="#ffffff"/><rect x="0" y="42.52" width="21.26" height="21.26" fill="#fff533"/><path d="M 0 63.78 A 21.26 21.26 0 0 1  21.26 42.52 L 0 63.78 A 21.26 21.26 0 0 0 21.26 42.52" fill="#fff533"/><rect x="21.26" y="42.52" width="21.26" height="21.26" fill="#5be218"/><path d="M 21.26 42.52 A 21.26 21.26 0 0 1  42.52 63.78 L 21.26 42.52 A 21.26 21.26 0 0 0 42.52 63.78" fill="#fff533"/><rect x="0" y="63.78" width="21.26" height="21.26" fill="#fff533"/><path d="M 0 63.78 A 21.26 21.26 0 0 1  21.26 85.04 L 0 63.78 A 21.26 21.26 0 0 0 21.26 85.04" fill="#fff533"/><rect x="21.26" y="63.78" width="21.26" height="21.26" fill="#5be218"/><path d="M 21.26 85.04 A 21.26 21.26 0 0 1  42.52 63.78 L 21.26 85.04 A 21.26 21.26 0 0 0 42.52 63.78" fill="#fff533"/><rect x="42.52" y="42.52" width="42.52" height="42.52" fill="#fff533"/><path d="M 42.52 85.04 A 42.52 42.52 0 0 1  85.04 42.52 L 42.52 85.04 A 42.52 42.52 0 0 0 85.04 42.52" fill="#fff533"/><rect x="85.04" y="42.52" width="42.52" height="42.52" fill="#ffffff"/><rect x="85.04" y="42.52" width="21.26" height="21.26" fill="#5be218"/><path d="M 85.04 63.78 A 21.26 21.26 0 0 1  106.30000000000001 42.52 L 85.04 63.78 A 21.26 21.26 0 0 0 106.30000000000001 42.52" fill="#fff533"/><rect x="106.3" y="42.52" width="21.26" height="21.26" fill="#fff533"/><path d="M 106.3 42.52 A 21.26 21.26 0 0 0 127.56 63.78 L 127.56 42.52L106.3 42.52" fill="#5be218"/><rect x="85.04" y="63.78" width="21.26" height="21.26" fill="#fff533"/><path d="M 85.04 85.04 A 21.26 21.26 0 0 0 106.30000000000001 63.78 L 85.04 63.78L85.04 85.04" fill="#fff533"/><rect x="106.3" y="63.78" width="21.26" height="21.26" fill="#5be218"/><path d="M 106.3 85.04 A 21.26 21.26 0 0 1  127.56 63.78 L 106.3 85.04 A 21.26 21.26 0 0 0 127.56 63.78" fill="#5be218"/><rect x="127.56" y="42.52" width="42.52" height="42.52" fill="#5be218"/><path d="M 127.56 42.52 A 42.52 42.52 0 0 1  170.08 85.04 L 127.56 42.52 A 42.52 42.52 0 0 0 170.08 85.04" fill="#fff533"/><rect x="170.08" y="42.52" width="42.52" height="42.52" fill="#ffffff"/><rect x="170.08" y="42.52" width="21.26" height="21.26" fill="#fff533"/><path d="M 170.08 63.78 A 21.26 21.26 0 0 1  191.34 42.52 L 170.08 63.78 A 21.26 21.26 0 0 0 191.34 42.52" fill="#5be218"/><rect x="191.34" y="42.52" width="21.26" height="21.26" fill="#fff533"/><path d="M 191.34 63.78 A 21.26 21.26 0 0 1  212.6 42.52 L 212.6 63.78L191.34 63.78" fill="#fff533"/><rect x="170.08" y="63.78" width="21.26" height="21.26" fill="#5be218"/><path d="M 170.08 63.78 A 21.26 21.26 0 0 1  191.34 85.04 L 170.08 63.78 A 21.26 21.26 0 0 0 191.34 85.04" fill="#fff533"/><rect x="191.34" y="63.78" width="21.26" height="21.26" fill="#fff533"/><path d="M 191.34 85.04 A 21.26 21.26 0 0 1  212.6 63.78 L 212.6 85.04L191.34 85.04" fill="#5be218"/><rect x="212.6" y="42.52" width="42.52" height="42.52" fill="#5be218"/><path d="M 212.6 85.04 A 42.52 42.52 0 0 1  255.12 42.52 L 212.6 85.04 A 42.52 42.52 0 0 0 255.12 42.52" fill="#fff533"/><rect x="255.12" y="42.52" width="42.52" height="42.52" fill="#fff533"/><path d="M 255.12 85.04 A 42.52 42.52 0 0 1  297.64 42.52 L 255.12 85.04 A 42.52 42.52 0 0 0 297.64 42.52" fill="#5be218"/><rect x="297.64000000000004" y="42.52" width="42.52" height="42.52" fill="#ffffff"/><rect x="297.64" y="42.52" width="21.26" height="21.26" fill="#5be218"/><path d="M 297.64 63.78 A 21.26 21.26 0 0 0 318.9 42.52 L 297.64 42.52L297.64 63.78" fill="#fff533"/><rect x="318.9" y="42.52" width="21.26" height="21.26" fill="#fff533"/><path d="M 318.9 42.52 A 21.26 21.26 0 0 1  340.15999999999997 63.78 L 318.9 42.52 A 21.26 21.26 0 0 0 340.15999999999997 63.78" fill="#5be218"/><rect x="297.64" y="63.78" width="21.26" height="21.26" fill="#5be218"/><path d="M 297.64 63.78 A 21.26 21.26 0 0 0 318.9 85.04 L 318.9 63.78L297.64 63.78" fill="#5be218"/><rect x="318.9" y="63.78" width="21.26" height="21.26" fill="#5be218"/><path d="M 318.9 63.78 A 21.26 21.26 0 0 0 340.15999999999997 85.04 L 340.15999999999997 63.78L318.9 63.78" fill="#fff533"/><rect x="340.16" y="42.52" width="42.52" height="42.52" fill="#fff533"/><path d="M 340.16 85.04 A 42.52 42.52 0 0 1  382.68 42.52 L 340.16 85.04 A 42.52 42.52 0 0 0 382.68 42.52" fill="#fff533"/><rect x="382.68" y="42.52" width="42.52" height="42.52" fill="#ffffff"/><rect x="382.68" y="42.52" width="21.26" height="21.26" fill="#5be218"/><path d="M 382.68 42.52 A 21.26 21.26 0 0 0 403.94 63.78 L 403.94 42.52L382.68 42.52" fill="#5be218"/><rect x="403.94" y="42.52" width="21.26" height="21.26" fill="#fff533"/><path d="M 403.94 63.78 A 21.26 21.26 0 0 1  425.2 42.52 L 403.94 63.78 A 21.26 21.26 0 0 0 425.2 42.52" fill="#fff533"/><rect x="382.68" y="63.78" width="21.26" height="21.26" fill="#5be218"/><path d="M 382.68 85.04 A 21.26 21.26 0 0 1  403.94 63.78 L 382.68 85.04 A 21.26 21.26 0 0 0 403.94 63.78" fill="#fff533"/><rect x="403.94" y="63.78" width="21.26" height="21.26" fill="#5be218"/><path d="M 403.94 63.78 A 21.26 21.26 0 0 1  425.2 85.04 L 403.94 63.78 A 21.26 21.26 0 0 0 425.2 85.04" fill="#5be218"/><rect x="425.2" y="42.52" width="42.52" height="42.52" fill="#fff533"/><path d="M 425.2 85.04 A 42.52 42.52 0 0 1  467.71999999999997 42.52 L 425.2 85.04 A 42.52 42.52 0 0 0 467.71999999999997 42.52" fill="#fff533"/><rect x="467.72" y="42.52" width="42.52" height="42.52" fill="#ffffff"/><rect x="467.72" y="42.52" width="21.26" height="21.26" fill="#5be218"/><path d="M 467.72 42.52 A 21.26 21.26 0 0 1  488.98 63.78 L 467.72 42.52 A 21.26 21.26 0 0 0 488.98 63.78" fill="#fff533"/><rect x="488.98" y="42.52" width="21.26" height="21.26" fill="#5be218"/><path d="M 488.98 42.52 A 21.26 21.26 0 0 1  510.24 63.78 L 488.98 42.52 A 21.26 21.26 0 0 0 510.24 63.78" fill="#fff533"/><rect x="467.72" y="63.78" width="21.26" height="21.26" fill="#fff533"/><path d="M 467.72 63.78 A 21.26 21.26 0 0 0 488.98 85.04 L 488.98 63.78L467.72 63.78" fill="#5be218"/><rect x="488.98" y="63.78" width="21.26" height="21.26" fill="#fff533"/><path d="M 488.98 85.04 A 21.26 21.26 0 0 1  510.24 63.78 L 488.98 85.04 A 21.26 21.26 0 0 0 510.24 63.78" fill="#fff533"/><rect x="510.24" y="42.52" width="42.52" height="42.52" fill="#5be218"/><path d="M 510.24 42.52 A 42.52 42.52 0 0 1  552.76 85.04 L 510.24 42.52 A 42.52 42.52 0 0 0 552.76 85.04" fill="#5be218"/><rect x="552.76" y="42.52" width="42.52" height="42.52" fill="#fff533"/><path d="M 552.76 85.04 A 42.52 42.52 0 0 1  595.28 42.52 L 595.28 85.04L552.76 85.04" fill="#fff533"/><rect x="595.28" y="42.52" width="42.52" height="42.52" fill="#fff533"/><path d="M 595.28 42.52 A 42.52 42.52 0 0 0 637.8 85.04 L 637.8 42.52L595.28 42.52" fill="#fff533"/><rect x="637.8000000000001" y="42.52" width="42.52" height="42.52" fill="#ffffff"/><rect x="637.8" y="42.52" width="21.26" height="21.26" fill="#fff533"/><path d="M 637.8 63.78 A 21.26 21.26 0 0 1  659.06 42.52 L 637.8 63.78 A 21.26 21.26 0 0 0 659.06 42.52" fill="#fff533"/><rect x="659.06" y="42.52" width="21.26" height="21.26" fill="#5be218"/><path d="M 659.06 63.78 A 21.26 21.26 0 0 1  680.3199999999999 42.52 L 659.06 63.78 A 21.26 21.26 0 0 0 680.3199999999999 42.52" fill="#5be218"/><rect x="637.8" y="63.78" width="21.26" height="21.26" fill="#fff533"/><path d="M 637.8 85.04 A 21.26 21.26 0 0 0 659.06 63.78 L 637.8 63.78L637.8 85.04" fill="#5be218"/><rect x="659.06" y="63.78" width="21.26" height="21.26" fill="#5be218"/><path d="M 659.06 63.78 A 21.26 21.26 0 0 1 680.3199999999999 85.04 L 659.06 85.04L659.06 63.78" fill="#fff533"/><rect x="680.32" y="42.52" width="42.52" height="42.52" fill="#ffffff"/><rect x="680.32" y="42.52" width="21.26" height="21.26" fill="#fff533"/><path d="M 680.32 63.78 A 21.26 21.26 0 0 0 701.58 42.52 L 680.32 42.52L680.32 63.78" fill="#fff533"/><rect x="701.58" y="42.52" width="21.26" height="21.26" fill="#fff533"/><path d="M 701.58 63.78 A 21.26 21.26 0 0 1  722.84 42.52 L 722.84 63.78L701.58 63.78" fill="#fff533"/><rect x="680.32" y="63.78" width="21.26" height="21.26" fill="#fff533"/><path d="M 680.32 85.04 A 21.26 21.26 0 0 0 701.58 63.78 L 680.32 63.78L680.32 85.04" fill="#fff533"/><rect x="701.58" y="63.78" width="21.26" height="21.26" fill="#5be218"/><path d="M 701.58 85.04 A 21.26 21.26 0 0 1  722.84 63.78 L 701.58 85.04 A 21.26 21.26 0 0 0 722.84 63.78" fill="#5be218"/><rect x="722.84" y="42.52" width="42.52" height="42.52" fill="#5be218"/><path d="M 722.84 42.52 A 42.52 42.52 0 0 1  765.36 85.04 L 722.84 42.52 A 42.52 42.52 0 0 0 765.36 85.04" fill="#fff533"/><rect x="0" y="85.04" width="42.52" height="42.52" fill="#5be218"/><path d="M 0 127.56 A 42.52 42.52 0 0 0 42.52 85.04 L 0 85.04L0 127.56" fill="#5be218"/><rect x="42.52" y="85.04" width="42.52" height="42.52" fill="#ffffff"/><rect x="42.52" y="85.04" width="21.26" height="21.26" fill="#fff533"/><path d="M 42.52 85.04 A 21.26 21.26 0 0 1 63.78 106.30000000000001 L 42.52 106.30000000000001L42.52 85.04" fill="#fff533"/><rect x="63.78" y="85.04" width="21.26" height="21.26" fill="#5be218"/><path d="M 63.78 106.30000000000001 A 21.26 21.26 0 0 1  85.04 85.04 L 85.04 106.30000000000001L63.78 106.30000000000001" fill="#fff533"/><rect x="42.52" y="106.3" width="21.26" height="21.26" fill="#fff533"/><path d="M 42.52 127.56 A 21.26 21.26 0 0 1  63.78 106.3 L 63.78 127.56L42.52 127.56" fill="#5be218"/><rect x="63.78" y="106.3" width="21.26" height="21.26" fill="#5be218"/><path d="M 63.78 127.56 A 21.26 21.26 0 0 1  85.04 106.3 L 63.78 127.56 A 21.26 21.26 0 0 0 85.04 106.3" fill="#5be218"/><rect x="85.04" y="85.04" width="42.52" height="42.52" fill="#ffffff"/><rect x="85.04" y="85.04" width="21.26" height="21.26" fill="#fff533"/><path d="M 85.04 106.30000000000001 A 21.26 21.26 0 0 0 106.30000000000001 85.04 L 85.04 85.04L85.04 106.30000000000001" fill="#fff533"/><rect x="106.3" y="85.04" width="21.26" height="21.26" fill="#5be218"/><path d="M 106.3 85.04 A 21.26 21.26 0 0 0 127.56 106.30000000000001 L 127.56 85.04L106.3 85.04" fill="#fff533"/><rect x="85.04" y="106.3" width="21.26" height="21.26" fill="#fff533"/><path d="M 85.04 106.3 A 21.26 21.26 0 0 0 106.30000000000001 127.56 L 106.30000000000001 106.3L85.04 106.3" fill="#fff533"/><rect x="106.3" y="106.3" width="21.26" height="21.26" fill="#5be218"/><path d="M 106.3 127.56 A 21.26 21.26 0 0 0 127.56 106.3 L 106.3 106.3L106.3 127.56" fill="#5be218"/><rect x="127.56" y="85.04" width="42.52" height="42.52" fill="#ffffff"/><rect x="127.56" y="85.04" width="21.26" height="21.26" fill="#5be218"/><path d="M 127.56 85.04 A 21.26 21.26 0 0 1 148.82 106.30000000000001 L 127.56 106.30000000000001L127.56 85.04" fill="#fff533"/><rect x="148.82" y="85.04" width="21.26" height="21.26" fill="#fff533"/><path d="M 148.82 85.04 A 21.26 21.26 0 0 1  170.07999999999998 106.30000000000001 L 148.82 85.04 A 21.26 21.26 0 0 0 170.07999999999998 106.30000000000001" fill="#fff533"/><rect x="127.56" y="106.3" width="21.26" height="21.26" fill="#fff533"/><path d="M 127.56 106.3 A 21.26 21.26 0 0 1  148.82 127.56 L 127.56 106.3 A 21.26 21.26 0 0 0 148.82 127.56" fill="#fff533"/><rect x="148.82" y="106.3" width="21.26" height="21.26" fill="#fff533"/><path d="M 148.82 127.56 A 21.26 21.26 0 0 1  170.07999999999998 106.3 L 170.07999999999998 127.56L148.82 127.56" fill="#5be218"/><rect x="170.08" y="85.04" width="42.52" height="42.52" fill="#ffffff"/><rect x="170.08" y="85.04" width="21.26" height="21.26" fill="#5be218"/><path d="M 170.08 85.04 A 21.26 21.26 0 0 1 191.34 106.30000000000001 L 170.08 106.30000000000001L170.08 85.04" fill="#fff533"/><rect x="191.34" y="85.04" width="21.26" height="21.26" fill="#5be218"/><path d="M 191.34 85.04 A 21.26 21.26 0 0 1  212.6 106.30000000000001 L 191.34 85.04 A 21.26 21.26 0 0 0 212.6 106.30000000000001" fill="#fff533"/><rect x="170.08" y="106.3" width="21.26" height="21.26" fill="#fff533"/><path d="M 170.08 127.56 A 21.26 21.26 0 0 1  191.34 106.3 L 170.08 127.56 A 21.26 21.26 0 0 0 191.34 106.3" fill="#fff533"/><rect x="191.34" y="106.3" width="21.26" height="21.26" fill="#5be218"/><path d="M 191.34 127.56 A 21.26 21.26 0 0 1  212.6 106.3 L 212.6 127.56L191.34 127.56" fill="#fff533"/><rect x="212.60000000000002" y="85.04" width="42.52" height="42.52" fill="#ffffff"/><rect x="212.6" y="85.04" width="21.26" height="21.26" fill="#5be218"/><path d="M 212.6 106.30000000000001 A 21.26 21.26 0 0 1  233.85999999999999 85.04 L 233.85999999999999 106.30000000000001L212.6 106.30000000000001" fill="#fff533"/><rect x="233.86" y="85.04" width="21.26" height="21.26" fill="#5be218"/><path d="M 233.86 85.04 A 21.26 21.26 0 0 1 255.12 106.30000000000001 L 233.86 106.30000000000001L233.86 85.04" fill="#fff533"/><rect x="212.6" y="106.3" width="21.26" height="21.26" fill="#fff533"/><path d="M 212.6 127.56 A 21.26 21.26 0 0 1  233.85999999999999 106.3 L 233.85999999999999 127.56L212.6 127.56" fill="#fff533"/><rect x="233.86" y="106.3" width="21.26" height="21.26" fill="#5be218"/><path d="M 233.86 127.56 A 21.26 21.26 0 0 1  255.12 106.3 L 255.12 127.56L233.86 127.56" fill="#5be218"/><rect x="255.12" y="85.04" width="42.52" height="42.52" fill="#ffffff"/><rect x="255.12" y="85.04" width="21.26" height="21.26" fill="#fff533"/><path d="M 255.12 85.04 A 21.26 21.26 0 0 1  276.38 106.30000000000001 L 255.12 85.04 A 21.26 21.26 0 0 0 276.38 106.30000000000001" fill="#fff533"/><rect x="276.38" y="85.04" width="21.26" height="21.26" fill="#5be218"/><path d="M 276.38 85.04 A 21.26 21.26 0 0 1  297.64 106.30000000000001 L 276.38 85.04 A 21.26 21.26 0 0 0 297.64 106.30000000000001" fill="#5be218"/><rect x="255.12" y="106.3" width="21.26" height="21.26" fill="#5be218"/><path d="M 255.12 106.3 A 21.26 21.26 0 0 1 276.38 127.56 L 255.12 127.56L255.12 106.3" fill="#5be218"/><rect x="276.38" y="106.3" width="21.26" height="21.26" fill="#fff533"/><path d="M 276.38 106.3 A 21.26 21.26 0 0 1 297.64 127.56 L 276.38 127.56L276.38 106.3" fill="#5be218"/><rect x="297.64" y="85.04" width="42.52" height="42.52" fill="#fff533"/><path d="M 297.64 85.04 A 42.52 42.52 0 0 1  340.15999999999997 127.56 L 297.64 85.04 A 42.52 42.52 0 0 0 340.15999999999997 127.56" fill="#fff533"/><rect x="340.16" y="85.04" width="42.52" height="42.52" fill="#ffffff"/><rect x="340.16" y="85.04" width="21.26" height="21.26" fill="#fff533"/><path d="M 340.16 85.04 A 21.26 21.26 0 0 1 361.42 106.30000000000001 L 340.16 106.30000000000001L340.16 85.04" fill="#5be218"/><rect x="361.42" y="85.04" width="21.26" height="21.26" fill="#fff533"/><path d="M 361.42 106.30000000000001 A 21.26 21.26 0 0 1  382.68 85.04 L 361.42 106.30000000000001 A 21.26 21.26 0 0 0 382.68 85.04" fill="#5be218"/><rect x="340.16" y="106.3" width="21.26" height="21.26" fill="#5be218"/><path d="M 340.16 106.3 A 21.26 21.26 0 0 1 361.42 127.56 L 340.16 127.56L340.16 106.3" fill="#fff533"/><rect x="361.42" y="106.3" width="21.26" height="21.26" fill="#5be218"/><path d="M 361.42 106.3 A 21.26 21.26 0 0 1 382.68 127.56 L 361.42 127.56L361.42 106.3" fill="#5be218"/><rect x="382.68" y="85.04" width="42.52" height="42.52" fill="#fff533"/><path d="M 382.68 85.04 A 42.52 42.52 0 0 1 425.2 127.56 L 382.68 127.56L382.68 85.04" fill="#fff533"/><rect x="425.20000000000005" y="85.04" width="42.52" height="42.52" fill="#ffffff"/><rect x="425.2" y="85.04" width="21.26" height="21.26" fill="#fff533"/><path d="M 425.2 85.04 A 21.26 21.26 0 0 1  446.46 106.30000000000001 L 425.2 85.04 A 21.26 21.26 0 0 0 446.46 106.30000000000001" fill="#fff533"/><rect x="446.46" y="85.04" width="21.26" height="21.26" fill="#fff533"/><path d="M 446.46 106.30000000000001 A 21.26 21.26 0 0 1  467.71999999999997 85.04 L 467.71999999999997 106.30000000000001L446.46 106.30000000000001" fill="#5be218"/><rect x="425.2" y="106.3" width="21.26" height="21.26" fill="#5be218"/><path d="M 425.2 106.3 A 21.26 21.26 0 0 1 446.46 127.56 L 425.2 127.56L425.2 106.3" fill="#5be218"/><rect x="446.46" y="106.3" width="21.26" height="21.26" fill="#5be218"/><path d="M 446.46 127.56 A 21.26 21.26 0 0 1  467.71999999999997 106.3 L 446.46 127.56 A 21.26 21.26 0 0 0 467.71999999999997 106.3" fill="#5be218"/><rect x="467.72" y="85.04" width="42.52" height="42.52" fill="#fff533"/><path d="M 467.72 85.04 A 42.52 42.52 0 0 1  510.24 127.56 L 467.72 85.04 A 42.52 42.52 0 0 0 510.24 127.56" fill="#5be218"/><rect x="510.24" y="85.04" width="42.52" height="42.52" fill="#fff533"/><path d="M 510.24 127.56 A 42.52 42.52 0 0 0 552.76 85.04 L 510.24 85.04L510.24 127.56" fill="#5be218"/><rect x="552.76" y="85.04" width="42.52" height="42.52" fill="#fff533"/><path d="M 552.76 85.04 A 42.52 42.52 0 0 1  595.28 127.56 L 552.76 85.04 A 42.52 42.52 0 0 0 595.28 127.56" fill="#5be218"/><rect x="595.28" y="85.04" width="42.52" height="42.52" fill="#5be218"/><path d="M 595.28 127.56 A 42.52 42.52 0 0 1  637.8 85.04 L 637.8 127.56L595.28 127.56" fill="#5be218"/><rect x="637.8000000000001" y="85.04" width="42.52" height="42.52" fill="#ffffff"/><rect x="637.8" y="85.04" width="21.26" height="21.26" fill="#5be218"/><path d="M 637.8 85.04 A 21.26 21.26 0 0 1  659.06 106.30000000000001 L 637.8 85.04 A 21.26 21.26 0 0 0 659.06 106.30000000000001" fill="#5be218"/><rect x="659.06" y="85.04" width="21.26" height="21.26" fill="#5be218"/><path d="M 659.06 85.04 A 21.26 21.26 0 0 0 680.3199999999999 106.30000000000001 L 680.3199999999999 85.04L659.06 85.04" fill="#fff533"/><rect x="637.8" y="106.3" width="21.26" height="21.26" fill="#5be218"/><path d="M 637.8 127.56 A 21.26 21.26 0 0 1  659.06 106.3 L 659.06 127.56L637.8 127.56" fill="#5be218"/><rect x="659.06" y="106.3" width="21.26" height="21.26" fill="#5be218"/><path d="M 659.06 106.3 A 21.26 21.26 0 0 0 680.3199999999999 127.56 L 680.3199999999999 106.3L659.06 106.3" fill="#fff533"/><rect x="680.32" y="85.04" width="42.52" height="42.52" fill="#5be218"/><path d="M 680.32 85.04 A 42.52 42.52 0 0 0 722.84 127.56 L 722.84 85.04L680.32 85.04" fill="#fff533"/><rect x="722.84" y="85.04" width="42.52" height="42.52" fill="#fff533"/><path d="M 722.84 85.04 A 42.52 42.52 0 0 0 765.36 127.56 L 765.36 85.04L722.84 85.04" fill="#fff533"/><rect x="0" y="127.56" width="42.52" height="42.52" fill="#ffffff"/><rect x="0" y="127.56" width="21.26" height="21.26" fill="#5be218"/><path d="M 0 127.56 A 21.26 21.26 0 0 1 21.26 148.82 L 0 148.82L0 127.56" fill="#5be218"/><rect x="21.26" y="127.56" width="21.26" height="21.26" fill="#fff533"/><path d="M 21.26 148.82 A 21.26 21.26 0 0 1  42.52 127.56 L 21.26 148.82 A 21.26 21.26 0 0 0 42.52 127.56" fill="#fff533"/><rect x="0" y="148.82" width="21.26" height="21.26" fill="#5be218"/><path d="M 0 170.07999999999998 A 21.26 21.26 0 0 0 21.26 148.82 L 0 148.82L0 170.07999999999998" fill="#5be218"/><rect x="21.26" y="148.82" width="21.26" height="21.26" fill="#5be218"/><path d="M 21.26 148.82 A 21.26 21.26 0 0 1  42.52 170.07999999999998 L 21.26 148.82 A 21.26 21.26 0 0 0 42.52 170.07999999999998" fill="#5be218"/><rect x="42.52" y="127.56" width="42.52" height="42.52" fill="#fff533"/><path d="M 42.52 127.56 A 42.52 42.52 0 0 1  85.04 170.08 L 42.52 127.56 A 42.52 42.52 0 0 0 85.04 170.08" fill="#fff533"/><rect x="85.04" y="127.56" width="42.52" height="42.52" fill="#ffffff"/><rect x="85.04" y="127.56" width="21.26" height="21.26" fill="#fff533"/><path d="M 85.04 127.56 A 21.26 21.26 0 0 0 106.30000000000001 148.82 L 106.30000000000001 127.56L85.04 127.56" fill="#5be218"/><rect x="106.3" y="127.56" width="21.26" height="21.26" fill="#5be218"/><path d="M 106.3 148.82 A 21.26 21.26 0 0 0 127.56 127.56 L 106.3 127.56L106.3 148.82" fill="#fff533"/><rect x="85.04" y="148.82" width="21.26" height="21.26" fill="#fff533"/><path d="M 85.04 170.07999999999998 A 21.26 21.26 0 0 1  106.30000000000001 148.82 L 85.04 170.07999999999998 A 21.26 21.26 0 0 0 106.30000000000001 148.82" fill="#fff533"/><rect x="106.3" y="148.82" width="21.26" height="21.26" fill="#fff533"/><path d="M 106.3 170.07999999999998 A 21.26 21.26 0 0 1  127.56 148.82 L 127.56 170.07999999999998L106.3 170.07999999999998" fill="#fff533"/><rect x="127.56" y="127.56" width="42.52" height="42.52" fill="#fff533"/><path d="M 127.56 170.08 A 42.52 42.52 0 0 1  170.08 127.56 L 170.08 170.08L127.56 170.08" fill="#fff533"/><rect x="170.08" y="127.56" width="42.52" height="42.52" fill="#ffffff"/><rect x="170.08" y="127.56" width="21.26" height="21.26" fill="#5be218"/><path d="M 170.08 148.82 A 21.26 21.26 0 0 0 191.34 127.56 L 170.08 127.56L170.08 148.82" fill="#5be218"/><rect x="191.34" y="127.56" width="21.26" height="21.26" fill="#fff533"/><path d="M 191.34 127.56 A 21.26 21.26 0 0 0 212.6 148.82 L 212.6 127.56L191.34 127.56" fill="#5be218"/><rect x="170.08" y="148.82" width="21.26" height="21.26" fill="#fff533"/><path d="M 170.08 170.07999999999998 A 21.26 21.26 0 0 0 191.34 148.82 L 170.08 148.82L170.08 170.07999999999998" fill="#5be218"/><rect x="191.34" y="148.82" width="21.26" height="21.26" fill="#fff533"/><path d="M 191.34 170.07999999999998 A 21.26 21.26 0 0 0 212.6 148.82 L 191.34 148.82L191.34 170.07999999999998" fill="#fff533"/><rect x="212.60000000000002" y="127.56" width="42.52" height="42.52" fill="#ffffff"/><rect x="212.6" y="127.56" width="21.26" height="21.26" fill="#5be218"/><path d="M 212.6 127.56 A 21.26 21.26 0 0 1  233.85999999999999 148.82 L 212.6 127.56 A 21.26 21.26 0 0 0 233.85999999999999 148.82" fill="#fff533"/><rect x="233.86" y="127.56" width="21.26" height="21.26" fill="#5be218"/><path d="M 233.86 127.56 A 21.26 21.26 0 0 0 255.12 148.82 L 255.12 127.56L233.86 127.56" fill="#fff533"/><rect x="212.6" y="148.82" width="21.26" height="21.26" fill="#fff533"/><path d="M 212.6 170.07999999999998 A 21.26 21.26 0 0 1  233.85999999999999 148.82 L 233.85999999999999 170.07999999999998L212.6 170.07999999999998" fill="#fff533"/><rect x="233.86" y="148.82" width="21.26" height="21.26" fill="#5be218"/><path d="M 233.86 170.07999999999998 A 21.26 21.26 0 0 1  255.12 148.82 L 255.12 170.07999999999998L233.86 170.07999999999998" fill="#fff533"/><rect x="255.12" y="127.56" width="42.52" height="42.52" fill="#ffffff"/><rect x="255.12" y="127.56" width="21.26" height="21.26" fill="#5be218"/><path d="M 255.12 127.56 A 21.26 21.26 0 0 0 276.38 148.82 L 276.38 127.56L255.12 127.56" fill="#fff533"/><rect x="276.38" y="127.56" width="21.26" height="21.26" fill="#5be218"/><path d="M 276.38 127.56 A 21.26 21.26 0 0 1  297.64 148.82 L 276.38 127.56 A 21.26 21.26 0 0 0 297.64 148.82" fill="#fff533"/><rect x="255.12" y="148.82" width="21.26" height="21.26" fill="#5be218"/><path d="M 255.12 170.07999999999998 A 21.26 21.26 0 0 1  276.38 148.82 L 276.38 170.07999999999998L255.12 170.07999999999998" fill="#5be218"/><rect x="276.38" y="148.82" width="21.26" height="21.26" fill="#5be218"/><path d="M 276.38 170.07999999999998 A 21.26 21.26 0 0 1  297.64 148.82 L 297.64 170.07999999999998L276.38 170.07999999999998" fill="#5be218"/><rect x="297.64" y="127.56" width="42.52" height="42.52" fill="#5be218"/><path d="M 297.64 170.08 A 42.52 42.52 0 0 0 340.15999999999997 127.56 L 297.64 127.56L297.64 170.08" fill="#5be218"/><rect x="340.16" y="127.56" width="42.52" height="42.52" fill="#fff533"/><path d="M 340.16 127.56 A 42.52 42.52 0 0 1  382.68 170.08 L 340.16 127.56 A 42.52 42.52 0 0 0 382.68 170.08" fill="#fff533"/><rect x="382.68" y="127.56" width="42.52" height="42.52" fill="#fff533"/><path d="M 382.68 127.56 A 42.52 42.52 0 0 1 425.2 170.08 L 382.68 170.08L382.68 127.56" fill="#5be218"/><rect x="425.20000000000005" y="127.56" width="42.52" height="42.52" fill="#ffffff"/><rect x="425.2" y="127.56" width="21.26" height="21.26" fill="#5be218"/><path d="M 425.2 127.56 A 21.26 21.26 0 0 1  446.46 148.82 L 425.2 127.56 A 21.26 21.26 0 0 0 446.46 148.82" fill="#fff533"/><rect x="446.46" y="127.56" width="21.26" height="21.26" fill="#5be218"/><path d="M 446.46 127.56 A 21.26 21.26 0 0 0 467.71999999999997 148.82 L 467.71999999999997 127.56L446.46 127.56" fill="#fff533"/><rect x="425.2" y="148.82" width="21.26" height="21.26" fill="#fff533"/><path d="M 425.2 170.07999999999998 A 21.26 21.26 0 0 0 446.46 148.82 L 425.2 148.82L425.2 170.07999999999998" fill="#fff533"/><rect x="446.46" y="148.82" width="21.26" height="21.26" fill="#5be218"/><path d="M 446.46 170.07999999999998 A 21.26 21.26 0 0 1  467.71999999999997 148.82 L 467.71999999999997 170.07999999999998L446.46 170.07999999999998" fill="#fff533"/><rect x="467.72" y="127.56" width="42.52" height="42.52" fill="#ffffff"/><rect x="467.72" y="127.56" width="21.26" height="21.26" fill="#5be218"/><path d="M 467.72 148.82 A 21.26 21.26 0 0 1  488.98 127.56 L 488.98 148.82L467.72 148.82" fill="#fff533"/><rect x="488.98" y="127.56" width="21.26" height="21.26" fill="#5be218"/><path d="M 488.98 148.82 A 21.26 21.26 0 0 1  510.24 127.56 L 510.24 148.82L488.98 148.82" fill="#fff533"/><rect x="467.72" y="148.82" width="21.26" height="21.26" fill="#fff533"/><path d="M 467.72 148.82 A 21.26 21.26 0 0 1 488.98 170.07999999999998 L 467.72 170.07999999999998L467.72 148.82" fill="#5be218"/><rect x="488.98" y="148.82" width="21.26" height="21.26" fill="#5be218"/><path d="M 488.98 170.07999999999998 A 21.26 21.26 0 0 0 510.24 148.82 L 488.98 148.82L488.98 170.07999999999998" fill="#fff533"/><rect x="510.24" y="127.56" width="42.52" height="42.52" fill="#5be218"/><path d="M 510.24 127.56 A 42.52 42.52 0 0 0 552.76 170.08 L 552.76 127.56L510.24 127.56" fill="#fff533"/><rect x="552.76" y="127.56" width="42.52" height="42.52" fill="#5be218"/><path d="M 552.76 127.56 A 42.52 42.52 0 0 0 595.28 170.08 L 595.28 127.56L552.76 127.56" fill="#fff533"/><rect x="595.2800000000001" y="127.56" width="42.52" height="42.52" fill="#ffffff"/><rect x="595.28" y="127.56" width="21.26" height="21.26" fill="#fff533"/><path d="M 595.28 127.56 A 21.26 21.26 0 0 1 616.54 148.82 L 595.28 148.82L595.28 127.56" fill="#fff533"/><rect x="616.54" y="127.56" width="21.26" height="21.26" fill="#5be218"/><path d="M 616.54 127.56 A 21.26 21.26 0 0 1 637.8 148.82 L 616.54 148.82L616.54 127.56" fill="#fff533"/><rect x="595.28" y="148.82" width="21.26" height="21.26" fill="#fff533"/><path d="M 595.28 148.82 A 21.26 21.26 0 0 1  616.54 170.07999999999998 L 595.28 148.82 A 21.26 21.26 0 0 0 616.54 170.07999999999998" fill="#5be218"/><rect x="616.54" y="148.82" width="21.26" height="21.26" fill="#fff533"/><path d="M 616.54 148.82 A 21.26 21.26 0 0 0 637.8 170.07999999999998 L 637.8 148.82L616.54 148.82" fill="#fff533"/><rect x="637.8" y="127.56" width="42.52" height="42.52" fill="#fff533"/><path d="M 637.8 127.56 A 42.52 42.52 0 0 1 680.3199999999999 170.08 L 637.8 170.08L637.8 127.56" fill="#5be218"/><rect x="680.32" y="127.56" width="42.52" height="42.52" fill="#ffffff"/><rect x="680.32" y="127.56" width="21.26" height="21.26" fill="#5be218"/><path d="M 680.32 127.56 A 21.26 21.26 0 0 0 701.58 148.82 L 701.58 127.56L680.32 127.56" fill="#5be218"/><rect x="701.58" y="127.56" width="21.26" height="21.26" fill="#5be218"/><path d="M 701.58 127.56 A 21.26 21.26 0 0 0 722.84 148.82 L 722.84 127.56L701.58 127.56" fill="#fff533"/><rect x="680.32" y="148.82" width="21.26" height="21.26" fill="#5be218"/><path d="M 680.32 148.82 A 21.26 21.26 0 0 1  701.58 170.07999999999998 L 680.32 148.82 A 21.26 21.26 0 0 0 701.58 170.07999999999998" fill="#fff533"/><rect x="701.58" y="148.82" width="21.26" height="21.26" fill="#5be218"/><path d="M 701.58 148.82 A 21.26 21.26 0 0 0 722.84 170.07999999999998 L 722.84 148.82L701.58 148.82" fill="#5be218"/><rect x="722.84" y="127.56" width="42.52" height="42.52" fill="#5be218"/><path d="M 722.84 170.08 A 42.52 42.52 0 0 1  765.36 127.56 L 722.84 170.08 A 42.52 42.52 0 0 0 765.36 127.56" fill="#fff533"/><rect x="0" y="170.08" width="42.52" height="42.52" fill="#ffffff"/><rect x="0" y="170.08" width="21.26" height="21.26" fill="#5be218"/><path d="M 0 191.34 A 21.26 21.26 0 0 0 21.26 170.08 L 0 170.08L0 191.34" fill="#5be218"/><rect x="21.26" y="170.08" width="21.26" height="21.26" fill="#fff533"/><path d="M 21.26 170.08 A 21.26 21.26 0 0 0 42.52 191.34 L 42.52 170.08L21.26 170.08" fill="#5be218"/><rect x="0" y="191.34" width="21.26" height="21.26" fill="#fff533"/><path d="M 0 212.6 A 21.26 21.26 0 0 0 21.26 191.34 L 0 191.34L0 212.6" fill="#5be218"/><rect x="21.26" y="191.34" width="21.26" height="21.26" fill="#fff533"/><path d="M 21.26 212.6 A 21.26 21.26 0 0 0 42.52 191.34 L 21.26 191.34L21.26 212.6" fill="#5be218"/><rect x="42.52" y="170.08" width="42.52" height="42.52" fill="#5be218"/><path d="M 42.52 170.08 A 42.52 42.52 0 0 0 85.04 212.60000000000002 L 85.04 170.08L42.52 170.08" fill="#5be218"/><rect x="85.04" y="170.08" width="42.52" height="42.52" fill="#fff533"/><path d="M 85.04 170.08 A 42.52 42.52 0 0 1  127.56 212.60000000000002 L 85.04 170.08 A 42.52 42.52 0 0 0 127.56 212.60000000000002" fill="#fff533"/><rect x="127.56" y="170.08" width="42.52" height="42.52" fill="#ffffff"/><rect x="127.56" y="170.08" width="21.26" height="21.26" fill="#5be218"/><path d="M 127.56 191.34 A 21.26 21.26 0 0 1  148.82 170.08 L 148.82 191.34L127.56 191.34" fill="#5be218"/><rect x="148.82" y="170.08" width="21.26" height="21.26" fill="#fff533"/><path d="M 148.82 191.34 A 21.26 21.26 0 0 1  170.07999999999998 170.08 L 170.07999999999998 191.34L148.82 191.34" fill="#fff533"/><rect x="127.56" y="191.34" width="21.26" height="21.26" fill="#5be218"/><path d="M 127.56 191.34 A 21.26 21.26 0 0 0 148.82 212.6 L 148.82 191.34L127.56 191.34" fill="#fff533"/><rect x="148.82" y="191.34" width="21.26" height="21.26" fill="#5be218"/><path d="M 148.82 212.6 A 21.26 21.26 0 0 1  170.07999999999998 191.34 L 170.07999999999998 212.6L148.82 212.6" fill="#fff533"/><rect x="170.08" y="170.08" width="42.52" height="42.52" fill="#ffffff"/><rect x="170.08" y="170.08" width="21.26" height="21.26" fill="#fff533"/><path d="M 170.08 170.08 A 21.26 21.26 0 0 1  191.34 191.34 L 170.08 170.08 A 21.26 21.26 0 0 0 191.34 191.34" fill="#5be218"/><rect x="191.34" y="170.08" width="21.26" height="21.26" fill="#5be218"/><path d="M 191.34 170.08 A 21.26 21.26 0 0 0 212.6 191.34 L 212.6 170.08L191.34 170.08" fill="#fff533"/><rect x="170.08" y="191.34" width="21.26" height="21.26" fill="#fff533"/><path d="M 170.08 212.6 A 21.26 21.26 0 0 0 191.34 191.34 L 170.08 191.34L170.08 212.6" fill="#fff533"/><rect x="191.34" y="191.34" width="21.26" height="21.26" fill="#5be218"/><path d="M 191.34 212.6 A 21.26 21.26 0 0 0 212.6 191.34 L 191.34 191.34L191.34 212.6" fill="#5be218"/><rect x="212.60000000000002" y="170.08" width="42.52" height="42.52" fill="#ffffff"/><rect x="212.6" y="170.08" width="21.26" height="21.26" fill="#fff533"/><path d="M 212.6 191.34 A 21.26 21.26 0 0 1  233.85999999999999 170.08 L 233.85999999999999 191.34L212.6 191.34" fill="#fff533"/><rect x="233.86" y="170.08" width="21.26" height="21.26" fill="#5be218"/><path d="M 233.86 170.08 A 21.26 21.26 0 0 0 255.12 191.34 L 255.12 170.08L233.86 170.08" fill="#5be218"/><rect x="212.6" y="191.34" width="21.26" height="21.26" fill="#fff533"/><path d="M 212.6 212.6 A 21.26 21.26 0 0 0 233.85999999999999 191.34 L 212.6 191.34L212.6 212.6" fill="#fff533"/><rect x="233.86" y="191.34" width="21.26" height="21.26" fill="#fff533"/><path d="M 233.86 212.6 A 21.26 21.26 0 0 0 255.12 191.34 L 233.86 191.34L233.86 212.6" fill="#5be218"/><rect x="255.12" y="170.08" width="42.52" height="42.52" fill="#5be218"/><path d="M 255.12 170.08 A 42.52 42.52 0 0 0 297.64 212.60000000000002 L 297.64 170.08L255.12 170.08" fill="#5be218"/><rect x="297.64000000000004" y="170.08" width="42.52" height="42.52" fill="#ffffff"/><rect x="297.64" y="170.08" width="21.26" height="21.26" fill="#fff533"/><path d="M 297.64 191.34 A 21.26 21.26 0 0 1  318.9 170.08 L 297.64 191.34 A 21.26 21.26 0 0 0 318.9 170.08" fill="#5be218"/><rect x="318.9" y="170.08" width="21.26" height="21.26" fill="#5be218"/><path d="M 318.9 191.34 A 21.26 21.26 0 0 1  340.15999999999997 170.08 L 318.9 191.34 A 21.26 21.26 0 0 0 340.15999999999997 170.08" fill="#5be218"/><rect x="297.64" y="191.34" width="21.26" height="21.26" fill="#5be218"/><path d="M 297.64 191.34 A 21.26 21.26 0 0 1 318.9 212.6 L 297.64 212.6L297.64 191.34" fill="#fff533"/><rect x="318.9" y="191.34" width="21.26" height="21.26" fill="#5be218"/><path d="M 318.9 191.34 A 21.26 21.26 0 0 1  340.15999999999997 212.6 L 318.9 191.34 A 21.26 21.26 0 0 0 340.15999999999997 212.6" fill="#fff533"/><rect x="340.16" y="170.08" width="42.52" height="42.52" fill="#ffffff"/><rect x="340.16" y="170.08" width="21.26" height="21.26" fill="#fff533"/><path d="M 340.16 170.08 A 21.26 21.26 0 0 0 361.42 191.34 L 361.42 170.08L340.16 170.08" fill="#5be218"/><rect x="361.42" y="170.08" width="21.26" height="21.26" fill="#5be218"/><path d="M 361.42 170.08 A 21.26 21.26 0 0 1 382.68 191.34 L 361.42 191.34L361.42 170.08" fill="#5be218"/><rect x="340.16" y="191.34" width="21.26" height="21.26" fill="#5be218"/><path d="M 340.16 191.34 A 21.26 21.26 0 0 0 361.42 212.6 L 361.42 191.34L340.16 191.34" fill="#5be218"/><rect x="361.42" y="191.34" width="21.26" height="21.26" fill="#5be218"/><path d="M 361.42 212.6 A 21.26 21.26 0 0 0 382.68 191.34 L 361.42 191.34L361.42 212.6" fill="#fff533"/><rect x="382.68" y="170.08" width="42.52" height="42.52" fill="#ffffff"/><rect x="382.68" y="170.08" width="21.26" height="21.26" fill="#fff533"/><path d="M 382.68 170.08 A 21.26 21.26 0 0 0 403.94 191.34 L 403.94 170.08L382.68 170.08" fill="#5be218"/><rect x="403.94" y="170.08" width="21.26" height="21.26" fill="#5be218"/><path d="M 403.94 191.34 A 21.26 21.26 0 0 1  425.2 170.08 L 425.2 191.34L403.94 191.34" fill="#fff533"/><rect x="382.68" y="191.34" width="21.26" height="21.26" fill="#5be218"/><path d="M 382.68 191.34 A 21.26 21.26 0 0 1 403.94 212.6 L 382.68 212.6L382.68 191.34" fill="#fff533"/><rect x="403.94" y="191.34" width="21.26" height="21.26" fill="#fff533"/><path d="M 403.94 191.34 A 21.26 21.26 0 0 0 425.2 212.6 L 425.2 191.34L403.94 191.34" fill="#fff533"/><rect x="425.20000000000005" y="170.08" width="42.52" height="42.52" fill="#ffffff"/><rect x="425.2" y="170.08" width="21.26" height="21.26" fill="#5be218"/><path d="M 425.2 191.34 A 21.26 21.26 0 0 1  446.46 170.08 L 446.46 191.34L425.2 191.34" fill="#fff533"/><rect x="446.46" y="170.08" width="21.26" height="21.26" fill="#fff533"/><path d="M 446.46 191.34 A 21.26 21.26 0 0 1  467.71999999999997 170.08 L 467.71999999999997 191.34L446.46 191.34" fill="#fff533"/><rect x="425.2" y="191.34" width="21.26" height="21.26" fill="#5be218"/><path d="M 425.2 212.6 A 21.26 21.26 0 0 0 446.46 191.34 L 425.2 191.34L425.2 212.6" fill="#5be218"/><rect x="446.46" y="191.34" width="21.26" height="21.26" fill="#5be218"/><path d="M 446.46 191.34 A 21.26 21.26 0 0 1 467.71999999999997 212.6 L 446.46 212.6L446.46 191.34" fill="#5be218"/><rect x="467.72" y="170.08" width="42.52" height="42.52" fill="#5be218"/><path d="M 467.72 170.08 A 42.52 42.52 0 0 1  510.24 212.60000000000002 L 467.72 170.08 A 42.52 42.52 0 0 0 510.24 212.60000000000002" fill="#fff533"/><rect x="510.24" y="170.08" width="42.52" height="42.52" fill="#ffffff"/><rect x="510.24" y="170.08" width="21.26" height="21.26" fill="#fff533"/><path d="M 510.24 170.08 A 21.26 21.26 0 0 1 531.5 191.34 L 510.24 191.34L510.24 170.08" fill="#5be218"/><rect x="531.5" y="170.08" width="21.26" height="21.26" fill="#5be218"/><path d="M 531.5 191.34 A 21.26 21.26 0 0 1  552.76 170.08 L 531.5 191.34 A 21.26 21.26 0 0 0 552.76 170.08" fill="#5be218"/><rect x="510.24" y="191.34" width="21.26" height="21.26" fill="#5be218"/><path d="M 510.24 191.34 A 21.26 21.26 0 0 1 531.5 212.6 L 510.24 212.6L510.24 191.34" fill="#5be218"/><rect x="531.5" y="191.34" width="21.26" height="21.26" fill="#fff533"/><path d="M 531.5 212.6 A 21.26 21.26 0 0 1  552.76 191.34 L 552.76 212.6L531.5 212.6" fill="#5be218"/><rect x="552.76" y="170.08" width="42.52" height="42.52" fill="#5be218"/><path d="M 552.76 170.08 A 42.52 42.52 0 0 1  595.28 212.60000000000002 L 552.76 170.08 A 42.52 42.52 0 0 0 595.28 212.60000000000002" fill="#5be218"/><rect x="595.28" y="170.08" width="42.52" height="42.52" fill="#5be218"/><path d="M 595.28 212.60000000000002 A 42.52 42.52 0 0 0 637.8 170.08 L 595.28 170.08L595.28 212.60000000000002" fill="#5be218"/><rect x="637.8000000000001" y="170.08" width="42.52" height="42.52" fill="#ffffff"/><rect x="637.8" y="170.08" width="21.26" height="21.26" fill="#5be218"/><path d="M 637.8 170.08 A 21.26 21.26 0 0 0 659.06 191.34 L 659.06 170.08L637.8 170.08" fill="#fff533"/><rect x="659.06" y="170.08" width="21.26" height="21.26" fill="#5be218"/><path d="M 659.06 191.34 A 21.26 21.26 0 0 0 680.3199999999999 170.08 L 659.06 170.08L659.06 191.34" fill="#fff533"/><rect x="637.8" y="191.34" width="21.26" height="21.26" fill="#fff533"/><path d="M 637.8 212.6 A 21.26 21.26 0 0 1  659.06 191.34 L 637.8 212.6 A 21.26 21.26 0 0 0 659.06 191.34" fill="#5be218"/><rect x="659.06" y="191.34" width="21.26" height="21.26" fill="#fff533"/><path d="M 659.06 212.6 A 21.26 21.26 0 0 1  680.3199999999999 191.34 L 680.3199999999999 212.6L659.06 212.6" fill="#fff533"/><rect x="680.32" y="170.08" width="42.52" height="42.52" fill="#fff533"/><path d="M 680.32 212.60000000000002 A 42.52 42.52 0 0 1  722.84 170.08 L 722.84 212.60000000000002L680.32 212.60000000000002" fill="#5be218"/><rect x="722.84" y="170.08" width="42.52" height="42.52" fill="#ffffff"/><rect x="722.84" y="170.08" width="21.26" height="21.26" fill="#5be218"/><path d="M 722.84 170.08 A 21.26 21.26 0 0 1 744.1 191.34 L 722.84 191.34L722.84 170.08" fill="#fff533"/><rect x="744.1" y="170.08" width="21.26" height="21.26" fill="#fff533"/><path d="M 744.1 191.34 A 21.26 21.26 0 0 0 765.36 170.08 L 744.1 170.08L744.1 191.34" fill="#5be218"/><rect x="722.84" y="191.34" width="21.26" height="21.26" fill="#fff533"/><path d="M 722.84 191.34 A 21.26 21.26 0 0 1  744.1 212.6 L 722.84 191.34 A 21.26 21.26 0 0 0 744.1 212.6" fill="#5be218"/><rect x="744.1" y="191.34" width="21.26" height="21.26" fill="#fff533"/><path d="M 744.1 212.6 A 21.26 21.26 0 0 0 765.36 191.34 L 744.1 191.34L744.1 212.6" fill="#fff533"/><rect x="0" y="212.60000000000002" width="42.52" height="42.52" fill="#ffffff"/><rect x="0" y="212.6" width="21.26" height="21.26" fill="#5be218"/><path d="M 0 212.6 A 21.26 21.26 0 0 1 21.26 233.85999999999999 L 0 233.85999999999999L0 212.6" fill="#fff533"/><rect x="21.26" y="212.6" width="21.26" height="21.26" fill="#fff533"/><path d="M 21.26 233.85999999999999 A 21.26 21.26 0 0 1  42.52 212.6 L 21.26 233.85999999999999 A 21.26 21.26 0 0 0 42.52 212.6" fill="#5be218"/><rect x="0" y="233.86" width="21.26" height="21.26" fill="#fff533"/><path d="M 0 255.12 A 21.26 21.26 0 0 0 21.26 233.86 L 0 233.86L0 255.12" fill="#fff533"/><rect x="21.26" y="233.86" width="21.26" height="21.26" fill="#fff533"/><path d="M 21.26 233.86 A 21.26 21.26 0 0 1  42.52 255.12 L 21.26 233.86 A 21.26 21.26 0 0 0 42.52 255.12" fill="#5be218"/><rect x="42.52" y="212.6" width="42.52" height="42.52" fill="#fff533"/><path d="M 42.52 255.12 A 42.52 42.52 0 0 1  85.04 212.6 L 42.52 255.12 A 42.52 42.52 0 0 0 85.04 212.6" fill="#fff533"/><rect x="85.04" y="212.60000000000002" width="42.52" height="42.52" fill="#ffffff"/><rect x="85.04" y="212.6" width="21.26" height="21.26" fill="#fff533"/><path d="M 85.04 233.85999999999999 A 21.26 21.26 0 0 1  106.30000000000001 212.6 L 106.30000000000001 233.85999999999999L85.04 233.85999999999999" fill="#fff533"/><rect x="106.3" y="212.6" width="21.26" height="21.26" fill="#5be218"/><path d="M 106.3 233.85999999999999 A 21.26 21.26 0 0 1  127.56 212.6 L 106.3 233.85999999999999 A 21.26 21.26 0 0 0 127.56 212.6" fill="#5be218"/><rect x="85.04" y="233.86" width="21.26" height="21.26" fill="#fff533"/><path d="M 85.04 233.86 A 21.26 21.26 0 0 0 106.30000000000001 255.12 L 106.30000000000001 233.86L85.04 233.86" fill="#5be218"/><rect x="106.3" y="233.86" width="21.26" height="21.26" fill="#fff533"/><path d="M 106.3 233.86 A 21.26 21.26 0 0 1  127.56 255.12 L 106.3 233.86 A 21.26 21.26 0 0 0 127.56 255.12" fill="#5be218"/><rect x="127.56" y="212.6" width="42.52" height="42.52" fill="#fff533"/><path d="M 127.56 255.12 A 42.52 42.52 0 0 1  170.08 212.6 L 127.56 255.12 A 42.52 42.52 0 0 0 170.08 212.6" fill="#fff533"/><rect x="170.08" y="212.60000000000002" width="42.52" height="42.52" fill="#ffffff"/><rect x="170.08" y="212.6" width="21.26" height="21.26" fill="#5be218"/><path d="M 170.08 233.85999999999999 A 21.26 21.26 0 0 1  191.34 212.6 L 170.08 233.85999999999999 A 21.26 21.26 0 0 0 191.34 212.6" fill="#fff533"/><rect x="191.34" y="212.6" width="21.26" height="21.26" fill="#5be218"/><path d="M 191.34 233.85999999999999 A 21.26 21.26 0 0 0 212.6 212.6 L 191.34 212.6L191.34 233.85999999999999" fill="#5be218"/><rect x="170.08" y="233.86" width="21.26" height="21.26" fill="#fff533"/><path d="M 170.08 233.86 A 21.26 21.26 0 0 1  191.34 255.12 L 170.08 233.86 A 21.26 21.26 0 0 0 191.34 255.12" fill="#fff533"/><rect x="191.34" y="233.86" width="21.26" height="21.26" fill="#fff533"/><path d="M 191.34 255.12 A 21.26 21.26 0 0 0 212.6 233.86 L 191.34 233.86L191.34 255.12" fill="#5be218"/><rect x="212.60000000000002" y="212.60000000000002" width="42.52" height="42.52" fill="#ffffff"/><rect x="212.6" y="212.6" width="21.26" height="21.26" fill="#5be218"/><path d="M 212.6 233.85999999999999 A 21.26 21.26 0 0 1  233.85999999999999 212.6 L 212.6 233.85999999999999 A 21.26 21.26 0 0 0 233.85999999999999 212.6" fill="#fff533"/><rect x="233.86" y="212.6" width="21.26" height="21.26" fill="#5be218"/><path d="M 233.86 212.6 A 21.26 21.26 0 0 0 255.12 233.85999999999999 L 255.12 212.6L233.86 212.6" fill="#fff533"/><rect x="212.6" y="233.86" width="21.26" height="21.26" fill="#fff533"/><path d="M 212.6 255.12 A 21.26 21.26 0 0 0 233.85999999999999 233.86 L 212.6 233.86L212.6 255.12" fill="#fff533"/><rect x="233.86" y="233.86" width="21.26" height="21.26" fill="#5be218"/><path d="M 233.86 233.86 A 21.26 21.26 0 0 0 255.12 255.12 L 255.12 233.86L233.86 233.86" fill="#5be218"/><rect x="255.12" y="212.60000000000002" width="42.52" height="42.52" fill="#ffffff"/><rect x="255.12" y="212.6" width="21.26" height="21.26" fill="#5be218"/><path d="M 255.12 233.85999999999999 A 21.26 21.26 0 0 0 276.38 212.6 L 255.12 212.6L255.12 233.85999999999999" fill="#fff533"/><rect x="276.38" y="212.6" width="21.26" height="21.26" fill="#fff533"/><path d="M 276.38 212.6 A 21.26 21.26 0 0 1  297.64 233.85999999999999 L 276.38 212.6 A 21.26 21.26 0 0 0 297.64 233.85999999999999" fill="#5be218"/><rect x="255.12" y="233.86" width="21.26" height="21.26" fill="#fff533"/><path d="M 255.12 255.12 A 21.26 21.26 0 0 1  276.38 233.86 L 276.38 255.12L255.12 255.12" fill="#fff533"/><rect x="276.38" y="233.86" width="21.26" height="21.26" fill="#fff533"/><path d="M 276.38 255.12 A 21.26 21.26 0 0 1  297.64 233.86 L 276.38 255.12 A 21.26 21.26 0 0 0 297.64 233.86" fill="#5be218"/><rect x="297.64000000000004" y="212.60000000000002" width="42.52" height="42.52" fill="#ffffff"/><rect x="297.64" y="212.6" width="21.26" height="21.26" fill="#fff533"/><path d="M 297.64 233.85999999999999 A 21.26 21.26 0 0 0 318.9 212.6 L 297.64 212.6L297.64 233.85999999999999" fill="#5be218"/><rect x="318.9" y="212.6" width="21.26" height="21.26" fill="#fff533"/><path d="M 318.9 212.6 A 21.26 21.26 0 0 1 340.15999999999997 233.85999999999999 L 318.9 233.85999999999999L318.9 212.6" fill="#fff533"/><rect x="297.64" y="233.86" width="21.26" height="21.26" fill="#5be218"/><path d="M 297.64 233.86 A 21.26 21.26 0 0 0 318.9 255.12 L 318.9 233.86L297.64 233.86" fill="#fff533"/><rect x="318.9" y="233.86" width="21.26" height="21.26" fill="#5be218"/><path d="M 318.9 255.12 A 21.26 21.26 0 0 0 340.15999999999997 233.86 L 318.9 233.86L318.9 255.12" fill="#fff533"/><rect x="340.16" y="212.6" width="42.52" height="42.52" fill="#fff533"/><path d="M 340.16 212.6 A 42.52 42.52 0 0 1  382.68 255.12 L 340.16 212.6 A 42.52 42.52 0 0 0 382.68 255.12" fill="#5be218"/><rect x="382.68" y="212.60000000000002" width="42.52" height="42.52" fill="#ffffff"/><rect x="382.68" y="212.6" width="21.26" height="21.26" fill="#fff533"/><path d="M 382.68 212.6 A 21.26 21.26 0 0 0 403.94 233.85999999999999 L 403.94 212.6L382.68 212.6" fill="#fff533"/><rect x="403.94" y="212.6" width="21.26" height="21.26" fill="#fff533"/><path d="M 403.94 212.6 A 21.26 21.26 0 0 1  425.2 233.85999999999999 L 403.94 212.6 A 21.26 21.26 0 0 0 425.2 233.85999999999999" fill="#fff533"/><rect x="382.68" y="233.86" width="21.26" height="21.26" fill="#fff533"/><path d="M 382.68 255.12 A 21.26 21.26 0 0 0 403.94 233.86 L 382.68 233.86L382.68 255.12" fill="#fff533"/><rect x="403.94" y="233.86" width="21.26" height="21.26" fill="#fff533"/><path d="M 403.94 255.12 A 21.26 21.26 0 0 1  425.2 233.86 L 403.94 255.12 A 21.26 21.26 0 0 0 425.2 233.86" fill="#5be218"/><rect x="425.2" y="212.6" width="42.52" height="42.52" fill="#5be218"/><path d="M 425.2 212.6 A 42.52 42.52 0 0 1  467.71999999999997 255.12 L 425.2 212.6 A 42.52 42.52 0 0 0 467.71999999999997 255.12" fill="#fff533"/><rect x="467.72" y="212.6" width="42.52" height="42.52" fill="#5be218"/><path d="M 467.72 255.12 A 42.52 42.52 0 0 1  510.24 212.6 L 510.24 255.12L467.72 255.12" fill="#5be218"/><rect x="510.24" y="212.6" width="42.52" height="42.52" fill="#5be218"/><path d="M 510.24 255.12 A 42.52 42.52 0 0 0 552.76 212.6 L 510.24 212.6L510.24 255.12" fill="#fff533"/><rect x="552.76" y="212.6" width="42.52" height="42.52" fill="#5be218"/><path d="M 552.76 255.12 A 42.52 42.52 0 0 1  595.28 212.6 L 552.76 255.12 A 42.52 42.52 0 0 0 595.28 212.6" fill="#5be218"/><rect x="595.2800000000001" y="212.60000000000002" width="42.52" height="42.52" fill="#ffffff"/><rect x="595.28" y="212.6" width="21.26" height="21.26" fill="#5be218"/><path d="M 595.28 212.6 A 21.26 21.26 0 0 1  616.54 233.85999999999999 L 595.28 212.6 A 21.26 21.26 0 0 0 616.54 233.85999999999999" fill="#5be218"/><rect x="616.54" y="212.6" width="21.26" height="21.26" fill="#fff533"/><path d="M 616.54 212.6 A 21.26 21.26 0 0 0 637.8 233.85999999999999 L 637.8 212.6L616.54 212.6" fill="#fff533"/><rect x="595.28" y="233.86" width="21.26" height="21.26" fill="#5be218"/><path d="M 595.28 233.86 A 21.26 21.26 0 0 1 616.54 255.12 L 595.28 255.12L595.28 233.86" fill="#fff533"/><rect x="616.54" y="233.86" width="21.26" height="21.26" fill="#5be218"/><path d="M 616.54 233.86 A 21.26 21.26 0 0 1  637.8 255.12 L 616.54 233.86 A 21.26 21.26 0 0 0 637.8 255.12" fill="#5be218"/><rect x="637.8" y="212.6" width="42.52" height="42.52" fill="#5be218"/><path d="M 637.8 255.12 A 42.52 42.52 0 0 1  680.3199999999999 212.6 L 680.3199999999999 255.12L637.8 255.12" fill="#5be218"/><rect x="680.32" y="212.60000000000002" width="42.52" height="42.52" fill="#ffffff"/><rect x="680.32" y="212.6" width="21.26" height="21.26" fill="#fff533"/><path d="M 680.32 212.6 A 21.26 21.26 0 0 0 701.58 233.85999999999999 L 701.58 212.6L680.32 212.6" fill="#5be218"/><rect x="701.58" y="212.6" width="21.26" height="21.26" fill="#fff533"/><path d="M 701.58 212.6 A 21.26 21.26 0 0 1 722.84 233.85999999999999 L 701.58 233.85999999999999L701.58 212.6" fill="#5be218"/><rect x="680.32" y="233.86" width="21.26" height="21.26" fill="#5be218"/><path d="M 680.32 255.12 A 21.26 21.26 0 0 1  701.58 233.86 L 680.32 255.12 A 21.26 21.26 0 0 0 701.58 233.86" fill="#fff533"/><rect x="701.58" y="233.86" width="21.26" height="21.26" fill="#5be218"/><path d="M 701.58 255.12 A 21.26 21.26 0 0 1  722.84 233.86 L 722.84 255.12L701.58 255.12" fill="#fff533"/><rect x="722.84" y="212.6" width="42.52" height="42.52" fill="#5be218"/><path d="M 722.84 255.12 A 42.52 42.52 0 0 1  765.36 212.6 L 765.36 255.12L722.84 255.12" fill="#5be218"/><rect x="0" y="255.12" width="42.52" height="42.52" fill="#ffffff"/><rect x="0" y="255.12" width="21.26" height="21.26" fill="#5be218"/><path d="M 0 255.12 A 21.26 21.26 0 0 1 21.26 276.38 L 0 276.38L0 255.12" fill="#5be218"/><rect x="21.26" y="255.12" width="21.26" height="21.26" fill="#fff533"/><path d="M 21.26 276.38 A 21.26 21.26 0 0 1  42.52 255.12 L 42.52 276.38L21.26 276.38" fill="#fff533"/><rect x="0" y="276.38" width="21.26" height="21.26" fill="#5be218"/><path d="M 0 276.38 A 21.26 21.26 0 0 1 21.26 297.64 L 0 297.64L0 276.38" fill="#fff533"/><rect x="21.26" y="276.38" width="21.26" height="21.26" fill="#5be218"/><path d="M 21.26 276.38 A 21.26 21.26 0 0 0 42.52 297.64 L 42.52 276.38L21.26 276.38" fill="#fff533"/><rect x="42.52" y="255.12" width="42.52" height="42.52" fill="#ffffff"/><rect x="42.52" y="255.12" width="21.26" height="21.26" fill="#5be218"/><path d="M 42.52 276.38 A 21.26 21.26 0 0 0 63.78 255.12 L 42.52 255.12L42.52 276.38" fill="#5be218"/><rect x="63.78" y="255.12" width="21.26" height="21.26" fill="#5be218"/><path d="M 63.78 276.38 A 21.26 21.26 0 0 1  85.04 255.12 L 63.78 276.38 A 21.26 21.26 0 0 0 85.04 255.12" fill="#fff533"/><rect x="42.52" y="276.38" width="21.26" height="21.26" fill="#fff533"/><path d="M 42.52 276.38 A 21.26 21.26 0 0 1 63.78 297.64 L 42.52 297.64L42.52 276.38" fill="#5be218"/><rect x="63.78" y="276.38" width="21.26" height="21.26" fill="#5be218"/><path d="M 63.78 297.64 A 21.26 21.26 0 0 0 85.04 276.38 L 63.78 276.38L63.78 297.64" fill="#fff533"/><rect x="85.04" y="255.12" width="42.52" height="42.52" fill="#fff533"/><path d="M 85.04 255.12 A 42.52 42.52 0 0 1 127.56 297.64 L 85.04 297.64L85.04 255.12" fill="#5be218"/><rect x="127.56" y="255.12" width="42.52" height="42.52" fill="#ffffff"/><rect x="127.56" y="255.12" width="21.26" height="21.26" fill="#5be218"/><path d="M 127.56 276.38 A 21.26 21.26 0 0 1  148.82 255.12 L 148.82 276.38L127.56 276.38" fill="#fff533"/><rect x="148.82" y="255.12" width="21.26" height="21.26" fill="#5be218"/><path d="M 148.82 255.12 A 21.26 21.26 0 0 0 170.07999999999998 276.38 L 170.07999999999998 255.12L148.82 255.12" fill="#fff533"/><rect x="127.56" y="276.38" width="21.26" height="21.26" fill="#5be218"/><path d="M 127.56 297.64 A 21.26 21.26 0 0 1  148.82 276.38 L 127.56 297.64 A 21.26 21.26 0 0 0 148.82 276.38" fill="#5be218"/><rect x="148.82" y="276.38" width="21.26" height="21.26" fill="#5be218"/><path d="M 148.82 297.64 A 21.26 21.26 0 0 1  170.07999999999998 276.38 L 170.07999999999998 297.64L148.82 297.64" fill="#fff533"/><rect x="170.08" y="255.12" width="42.52" height="42.52" fill="#5be218"/><path d="M 170.08 255.12 A 42.52 42.52 0 0 0 212.60000000000002 297.64 L 212.60000000000002 255.12L170.08 255.12" fill="#5be218"/><rect x="212.6" y="255.12" width="42.52" height="42.52" fill="#5be218"/><path d="M 212.6 297.64 A 42.52 42.52 0 0 0 255.12 255.12 L 212.6 255.12L212.6 297.64" fill="#fff533"/><rect x="255.12" y="255.12" width="42.52" height="42.52" fill="#5be218"/><path d="M 255.12 297.64 A 42.52 42.52 0 0 0 297.64 255.12 L 255.12 255.12L255.12 297.64" fill="#5be218"/><rect x="297.64" y="255.12" width="42.52" height="42.52" fill="#5be218"/><path d="M 297.64 297.64 A 42.52 42.52 0 0 0 340.15999999999997 255.12 L 297.64 255.12L297.64 297.64" fill="#5be218"/><rect x="340.16" y="255.12" width="42.52" height="42.52" fill="#ffffff"/><rect x="340.16" y="255.12" width="21.26" height="21.26" fill="#fff533"/><path d="M 340.16 276.38 A 21.26 21.26 0 0 1  361.42 255.12 L 361.42 276.38L340.16 276.38" fill="#fff533"/><rect x="361.42" y="255.12" width="21.26" height="21.26" fill="#5be218"/><path d="M 361.42 276.38 A 21.26 21.26 0 0 1  382.68 255.12 L 382.68 276.38L361.42 276.38" fill="#fff533"/><rect x="340.16" y="276.38" width="21.26" height="21.26" fill="#fff533"/><path d="M 340.16 297.64 A 21.26 21.26 0 0 0 361.42 276.38 L 340.16 276.38L340.16 297.64" fill="#5be218"/><rect x="361.42" y="276.38" width="21.26" height="21.26" fill="#5be218"/><path d="M 361.42 276.38 A 21.26 21.26 0 0 1  382.68 297.64 L 361.42 276.38 A 21.26 21.26 0 0 0 382.68 297.64" fill="#fff533"/><rect x="382.68" y="255.12" width="42.52" height="42.52" fill="#ffffff"/><rect x="382.68" y="255.12" width="21.26" height="21.26" fill="#fff533"/><path d="M 382.68 276.38 A 21.26 21.26 0 0 0 403.94 255.12 L 382.68 255.12L382.68 276.38" fill="#fff533"/><rect x="403.94" y="255.12" width="21.26" height="21.26" fill="#fff533"/><path d="M 403.94 276.38 A 21.26 21.26 0 0 0 425.2 255.12 L 403.94 255.12L403.94 276.38" fill="#fff533"/><rect x="382.68" y="276.38" width="21.26" height="21.26" fill="#fff533"/><path d="M 382.68 276.38 A 21.26 21.26 0 0 0 403.94 297.64 L 403.94 276.38L382.68 276.38" fill="#fff533"/><rect x="403.94" y="276.38" width="21.26" height="21.26" fill="#fff533"/><path d="M 403.94 276.38 A 21.26 21.26 0 0 0 425.2 297.64 L 425.2 276.38L403.94 276.38" fill="#5be218"/><rect x="425.20000000000005" y="255.12" width="42.52" height="42.52" fill="#ffffff"/><rect x="425.2" y="255.12" width="21.26" height="21.26" fill="#5be218"/><path d="M 425.2 276.38 A 21.26 21.26 0 0 1  446.46 255.12 L 446.46 276.38L425.2 276.38" fill="#fff533"/><rect x="446.46" y="255.12" width="21.26" height="21.26" fill="#fff533"/><path d="M 446.46 276.38 A 21.26 21.26 0 0 1  467.71999999999997 255.12 L 467.71999999999997 276.38L446.46 276.38" fill="#5be218"/><rect x="425.2" y="276.38" width="21.26" height="21.26" fill="#5be218"/><path d="M 425.2 276.38 A 21.26 21.26 0 0 0 446.46 297.64 L 446.46 276.38L425.2 276.38" fill="#5be218"/><rect x="446.46" y="276.38" width="21.26" height="21.26" fill="#5be218"/><path d="M 446.46 297.64 A 21.26 21.26 0 0 1  467.71999999999997 276.38 L 467.71999999999997 297.64L446.46 297.64" fill="#5be218"/><rect x="467.72" y="255.12" width="42.52" height="42.52" fill="#ffffff"/><rect x="467.72" y="255.12" width="21.26" height="21.26" fill="#fff533"/><path d="M 467.72 276.38 A 21.26 21.26 0 0 1  488.98 255.12 L 467.72 276.38 A 21.26 21.26 0 0 0 488.98 255.12" fill="#fff533"/><rect x="488.98" y="255.12" width="21.26" height="21.26" fill="#fff533"/><path d="M 488.98 276.38 A 21.26 21.26 0 0 0 510.24 255.12 L 488.98 255.12L488.98 276.38" fill="#5be218"/><rect x="467.72" y="276.38" width="21.26" height="21.26" fill="#fff533"/><path d="M 467.72 297.64 A 21.26 21.26 0 0 0 488.98 276.38 L 467.72 276.38L467.72 297.64" fill="#5be218"/><rect x="488.98" y="276.38" width="21.26" height="21.26" fill="#5be218"/><path d="M 488.98 297.64 A 21.26 21.26 0 0 1  510.24 276.38 L 510.24 297.64L488.98 297.64" fill="#5be218"/><rect x="510.24" y="255.12" width="42.52" height="42.52" fill="#5be218"/><path d="M 510.24 297.64 A 42.52 42.52 0 0 0 552.76 255.12 L 510.24 255.12L510.24 297.64" fill="#fff533"/><rect x="552.76" y="255.12" width="42.52" height="42.52" fill="#ffffff"/><rect x="552.76" y="255.12" width="21.26" height="21.26" fill="#5be218"/><path d="M 552.76 255.12 A 21.26 21.26 0 0 1  574.02 276.38 L 552.76 255.12 A 21.26 21.26 0 0 0 574.02 276.38" fill="#5be218"/><rect x="574.02" y="255.12" width="21.26" height="21.26" fill="#5be218"/><path d="M 574.02 255.12 A 21.26 21.26 0 0 0 595.28 276.38 L 595.28 255.12L574.02 255.12" fill="#5be218"/><rect x="552.76" y="276.38" width="21.26" height="21.26" fill="#5be218"/><path d="M 552.76 297.64 A 21.26 21.26 0 0 1  574.02 276.38 L 574.02 297.64L552.76 297.64" fill="#5be218"/><rect x="574.02" y="276.38" width="21.26" height="21.26" fill="#fff533"/><path d="M 574.02 297.64 A 21.26 21.26 0 0 1  595.28 276.38 L 574.02 297.64 A 21.26 21.26 0 0 0 595.28 276.38" fill="#fff533"/><rect x="595.2800000000001" y="255.12" width="42.52" height="42.52" fill="#ffffff"/><rect x="595.28" y="255.12" width="21.26" height="21.26" fill="#fff533"/><path d="M 595.28 255.12 A 21.26 21.26 0 0 0 616.54 276.38 L 616.54 255.12L595.28 255.12" fill="#fff533"/><rect x="616.54" y="255.12" width="21.26" height="21.26" fill="#5be218"/><path d="M 616.54 255.12 A 21.26 21.26 0 0 0 637.8 276.38 L 637.8 255.12L616.54 255.12" fill="#fff533"/><rect x="595.28" y="276.38" width="21.26" height="21.26" fill="#fff533"/><path d="M 595.28 276.38 A 21.26 21.26 0 0 0 616.54 297.64 L 616.54 276.38L595.28 276.38" fill="#fff533"/><rect x="616.54" y="276.38" width="21.26" height="21.26" fill="#5be218"/><path d="M 616.54 297.64 A 21.26 21.26 0 0 1  637.8 276.38 L 616.54 297.64 A 21.26 21.26 0 0 0 637.8 276.38" fill="#5be218"/><rect x="637.8000000000001" y="255.12" width="42.52" height="42.52" fill="#ffffff"/><rect x="637.8" y="255.12" width="21.26" height="21.26" fill="#5be218"/><path d="M 637.8 276.38 A 21.26 21.26 0 0 0 659.06 255.12 L 637.8 255.12L637.8 276.38" fill="#fff533"/><rect x="659.06" y="255.12" width="21.26" height="21.26" fill="#fff533"/><path d="M 659.06 276.38 A 21.26 21.26 0 0 0 680.3199999999999 255.12 L 659.06 255.12L659.06 276.38" fill="#fff533"/><rect x="637.8" y="276.38" width="21.26" height="21.26" fill="#5be218"/><path d="M 637.8 276.38 A 21.26 21.26 0 0 1 659.06 297.64 L 637.8 297.64L637.8 276.38" fill="#5be218"/><rect x="659.06" y="276.38" width="21.26" height="21.26" fill="#fff533"/><path d="M 659.06 276.38 A 21.26 21.26 0 0 1  680.3199999999999 297.64 L 659.06 276.38 A 21.26 21.26 0 0 0 680.3199999999999 297.64" fill="#fff533"/><rect x="680.32" y="255.12" width="42.52" height="42.52" fill="#ffffff"/><rect x="680.32" y="255.12" width="21.26" height="21.26" fill="#5be218"/><path d="M 680.32 276.38 A 21.26 21.26 0 0 1  701.58 255.12 L 701.58 276.38L680.32 276.38" fill="#5be218"/><rect x="701.58" y="255.12" width="21.26" height="21.26" fill="#5be218"/><path d="M 701.58 255.12 A 21.26 21.26 0 0 0 722.84 276.38 L 722.84 255.12L701.58 255.12" fill="#fff533"/><rect x="680.32" y="276.38" width="21.26" height="21.26" fill="#5be218"/><path d="M 680.32 297.64 A 21.26 21.26 0 0 0 701.58 276.38 L 680.32 276.38L680.32 297.64" fill="#5be218"/><rect x="701.58" y="276.38" width="21.26" height="21.26" fill="#5be218"/><path d="M 701.58 276.38 A 21.26 21.26 0 0 1  722.84 297.64 L 701.58 276.38 A 21.26 21.26 0 0 0 722.84 297.64" fill="#fff533"/><rect x="722.84" y="255.12" width="42.52" height="42.52" fill="#fff533"/><path d="M 722.84 255.12 A 42.52 42.52 0 0 0 765.36 297.64 L 765.36 255.12L722.84 255.12" fill="#5be218"/><rect x="0" y="297.64000000000004" width="42.52" height="42.52" fill="#ffffff"/><rect x="0" y="297.64" width="21.26" height="21.26" fill="#5be218"/><path d="M 0 318.9 A 21.26 21.26 0 0 1  21.26 297.64 L 0 318.9 A 21.26 21.26 0 0 0 21.26 297.64" fill="#5be218"/><rect x="21.26" y="297.64" width="21.26" height="21.26" fill="#fff533"/><path d="M 21.26 297.64 A 21.26 21.26 0 0 1 42.52 318.9 L 21.26 318.9L21.26 297.64" fill="#5be218"/><rect x="0" y="318.9" width="21.26" height="21.26" fill="#fff533"/><path d="M 0 318.9 A 21.26 21.26 0 0 1 21.26 340.15999999999997 L 0 340.15999999999997L0 318.9" fill="#5be218"/><rect x="21.26" y="318.9" width="21.26" height="21.26" fill="#5be218"/><path d="M 21.26 318.9 A 21.26 21.26 0 0 1  42.52 340.15999999999997 L 21.26 318.9 A 21.26 21.26 0 0 0 42.52 340.15999999999997" fill="#5be218"/><rect x="42.52" y="297.64" width="42.52" height="42.52" fill="#fff533"/><path d="M 42.52 297.64 A 42.52 42.52 0 0 0 85.04 340.15999999999997 L 85.04 297.64L42.52 297.64" fill="#5be218"/><rect x="85.04" y="297.64" width="42.52" height="42.52" fill="#fff533"/><path d="M 85.04 297.64 A 42.52 42.52 0 0 1 127.56 340.15999999999997 L 85.04 340.15999999999997L85.04 297.64" fill="#fff533"/><rect x="127.56" y="297.64000000000004" width="42.52" height="42.52" fill="#ffffff"/><rect x="127.56" y="297.64" width="21.26" height="21.26" fill="#5be218"/><path d="M 127.56 297.64 A 21.26 21.26 0 0 1 148.82 318.9 L 127.56 318.9L127.56 297.64" fill="#5be218"/><rect x="148.82" y="297.64" width="21.26" height="21.26" fill="#5be218"/><path d="M 148.82 318.9 A 21.26 21.26 0 0 1  170.07999999999998 297.64 L 148.82 318.9 A 21.26 21.26 0 0 0 170.07999999999998 297.64" fill="#fff533"/><rect x="127.56" y="318.9" width="21.26" height="21.26" fill="#fff533"/><path d="M 127.56 318.9 A 21.26 21.26 0 0 1  148.82 340.15999999999997 L 127.56 318.9 A 21.26 21.26 0 0 0 148.82 340.15999999999997" fill="#5be218"/><rect x="148.82" y="318.9" width="21.26" height="21.26" fill="#5be218"/><path d="M 148.82 340.15999999999997 A 21.26 21.26 0 0 0 170.07999999999998 318.9 L 148.82 318.9L148.82 340.15999999999997" fill="#5be218"/><rect x="170.08" y="297.64" width="42.52" height="42.52" fill="#fff533"/><path d="M 170.08 340.15999999999997 A 42.52 42.52 0 0 1  212.60000000000002 297.64 L 170.08 340.15999999999997 A 42.52 42.52 0 0 0 212.60000000000002 297.64" fill="#fff533"/><rect x="212.60000000000002" y="297.64000000000004" width="42.52" height="42.52" fill="#ffffff"/><rect x="212.6" y="297.64" width="21.26" height="21.26" fill="#5be218"/><path d="M 212.6 318.9 A 21.26 21.26 0 0 1  233.85999999999999 297.64 L 233.85999999999999 318.9L212.6 318.9" fill="#5be218"/><rect x="233.86" y="297.64" width="21.26" height="21.26" fill="#5be218"/><path d="M 233.86 297.64 A 21.26 21.26 0 0 1 255.12 318.9 L 233.86 318.9L233.86 297.64" fill="#5be218"/><rect x="212.6" y="318.9" width="21.26" height="21.26" fill="#fff533"/><path d="M 212.6 318.9 A 21.26 21.26 0 0 1 233.85999999999999 340.15999999999997 L 212.6 340.15999999999997L212.6 318.9" fill="#fff533"/><rect x="233.86" y="318.9" width="21.26" height="21.26" fill="#5be218"/><path d="M 233.86 340.15999999999997 A 21.26 21.26 0 0 1  255.12 318.9 L 233.86 340.15999999999997 A 21.26 21.26 0 0 0 255.12 318.9" fill="#5be218"/><rect x="255.12" y="297.64000000000004" width="42.52" height="42.52" fill="#ffffff"/><rect x="255.12" y="297.64" width="21.26" height="21.26" fill="#5be218"/><path d="M 255.12 318.9 A 21.26 21.26 0 0 1  276.38 297.64 L 255.12 318.9 A 21.26 21.26 0 0 0 276.38 297.64" fill="#5be218"/><rect x="276.38" y="297.64" width="21.26" height="21.26" fill="#5be218"/><path d="M 276.38 297.64 A 21.26 21.26 0 0 0 297.64 318.9 L 297.64 297.64L276.38 297.64" fill="#5be218"/><rect x="255.12" y="318.9" width="21.26" height="21.26" fill="#fff533"/><path d="M 255.12 318.9 A 21.26 21.26 0 0 0 276.38 340.15999999999997 L 276.38 318.9L255.12 318.9" fill="#5be218"/><rect x="276.38" y="318.9" width="21.26" height="21.26" fill="#fff533"/><path d="M 276.38 340.15999999999997 A 21.26 21.26 0 0 0 297.64 318.9 L 276.38 318.9L276.38 340.15999999999997" fill="#fff533"/><rect x="297.64" y="297.64" width="42.52" height="42.52" fill="#5be218"/><path d="M 297.64 297.64 A 42.52 42.52 0 0 1  340.15999999999997 340.15999999999997 L 297.64 297.64 A 42.52 42.52 0 0 0 340.15999999999997 340.15999999999997" fill="#5be218"/><rect x="340.16" y="297.64" width="42.52" height="42.52" fill="#fff533"/><path d="M 340.16 340.15999999999997 A 42.52 42.52 0 0 0 382.68 297.64 L 340.16 297.64L340.16 340.15999999999997" fill="#fff533"/><rect x="382.68" y="297.64" width="42.52" height="42.52" fill="#5be218"/><path d="M 382.68 297.64 A 42.52 42.52 0 0 1  425.2 340.15999999999997 L 382.68 297.64 A 42.52 42.52 0 0 0 425.2 340.15999999999997" fill="#5be218"/><rect x="425.20000000000005" y="297.64000000000004" width="42.52" height="42.52" fill="#ffffff"/><rect x="425.2" y="297.64" width="21.26" height="21.26" fill="#5be218"/><path d="M 425.2 318.9 A 21.26 21.26 0 0 0 446.46 297.64 L 425.2 297.64L425.2 318.9" fill="#5be218"/><rect x="446.46" y="297.64" width="21.26" height="21.26" fill="#5be218"/><path d="M 446.46 297.64 A 21.26 21.26 0 0 1 467.71999999999997 318.9 L 446.46 318.9L446.46 297.64" fill="#fff533"/><rect x="425.2" y="318.9" width="21.26" height="21.26" fill="#5be218"/><path d="M 425.2 340.15999999999997 A 21.26 21.26 0 0 0 446.46 318.9 L 425.2 318.9L425.2 340.15999999999997" fill="#fff533"/><rect x="446.46" y="318.9" width="21.26" height="21.26" fill="#5be218"/><path d="M 446.46 340.15999999999997 A 21.26 21.26 0 0 0 467.71999999999997 318.9 L 446.46 318.9L446.46 340.15999999999997" fill="#fff533"/><rect x="467.72" y="297.64000000000004" width="42.52" height="42.52" fill="#ffffff"/><rect x="467.72" y="297.64" width="21.26" height="21.26" fill="#5be218"/><path d="M 467.72 318.9 A 21.26 21.26 0 0 1  488.98 297.64 L 467.72 318.9 A 21.26 21.26 0 0 0 488.98 297.64" fill="#fff533"/><rect x="488.98" y="297.64" width="21.26" height="21.26" fill="#5be218"/><path d="M 488.98 318.9 A 21.26 21.26 0 0 1  510.24 297.64 L 488.98 318.9 A 21.26 21.26 0 0 0 510.24 297.64" fill="#fff533"/><rect x="467.72" y="318.9" width="21.26" height="21.26" fill="#fff533"/><path d="M 467.72 340.15999999999997 A 21.26 21.26 0 0 1  488.98 318.9 L 467.72 340.15999999999997 A 21.26 21.26 0 0 0 488.98 318.9" fill="#5be218"/><rect x="488.98" y="318.9" width="21.26" height="21.26" fill="#fff533"/><path d="M 488.98 340.15999999999997 A 21.26 21.26 0 0 1  510.24 318.9 L 488.98 340.15999999999997 A 21.26 21.26 0 0 0 510.24 318.9" fill="#5be218"/><rect x="510.24" y="297.64" width="42.52" height="42.52" fill="#fff533"/><path d="M 510.24 340.15999999999997 A 42.52 42.52 0 0 1  552.76 297.64 L 510.24 340.15999999999997 A 42.52 42.52 0 0 0 552.76 297.64" fill="#fff533"/><rect x="552.76" y="297.64000000000004" width="42.52" height="42.52" fill="#ffffff"/><rect x="552.76" y="297.64" width="21.26" height="21.26" fill="#fff533"/><path d="M 552.76 297.64 A 21.26 21.26 0 0 1  574.02 318.9 L 552.76 297.64 A 21.26 21.26 0 0 0 574.02 318.9" fill="#5be218"/><rect x="574.02" y="297.64" width="21.26" height="21.26" fill="#5be218"/><path d="M 574.02 318.9 A 21.26 21.26 0 0 0 595.28 297.64 L 574.02 297.64L574.02 318.9" fill="#5be218"/><rect x="552.76" y="318.9" width="21.26" height="21.26" fill="#5be218"/><path d="M 552.76 340.15999999999997 A 21.26 21.26 0 0 1  574.02 318.9 L 552.76 340.15999999999997 A 21.26 21.26 0 0 0 574.02 318.9" fill="#5be218"/><rect x="574.02" y="318.9" width="21.26" height="21.26" fill="#5be218"/><path d="M 574.02 340.15999999999997 A 21.26 21.26 0 0 1  595.28 318.9 L 574.02 340.15999999999997 A 21.26 21.26 0 0 0 595.28 318.9" fill="#fff533"/><rect x="595.28" y="297.64" width="42.52" height="42.52" fill="#fff533"/><path d="M 595.28 340.15999999999997 A 42.52 42.52 0 0 1  637.8 297.64 L 637.8 340.15999999999997L595.28 340.15999999999997" fill="#5be218"/><rect x="637.8" y="297.64" width="42.52" height="42.52" fill="#5be218"/><path d="M 637.8 340.15999999999997 A 42.52 42.52 0 0 1  680.3199999999999 297.64 L 680.3199999999999 340.15999999999997L637.8 340.15999999999997" fill="#fff533"/><rect x="680.32" y="297.64000000000004" width="42.52" height="42.52" fill="#ffffff"/><rect x="680.32" y="297.64" width="21.26" height="21.26" fill="#5be218"/><path d="M 680.32 318.9 A 21.26 21.26 0 0 0 701.58 297.64 L 680.32 297.64L680.32 318.9" fill="#fff533"/><rect x="701.58" y="297.64" width="21.26" height="21.26" fill="#5be218"/><path d="M 701.58 318.9 A 21.26 21.26 0 0 0 722.84 297.64 L 701.58 297.64L701.58 318.9" fill="#fff533"/><rect x="680.32" y="318.9" width="21.26" height="21.26" fill="#5be218"/><path d="M 680.32 340.15999999999997 A 21.26 21.26 0 0 1  701.58 318.9 L 701.58 340.15999999999997L680.32 340.15999999999997" fill="#fff533"/><rect x="701.58" y="318.9" width="21.26" height="21.26" fill="#5be218"/><path d="M 701.58 318.9 A 21.26 21.26 0 0 0 722.84 340.15999999999997 L 722.84 318.9L701.58 318.9" fill="#fff533"/><rect x="722.84" y="297.64" width="42.52" height="42.52" fill="#5be218"/><path d="M 722.84 340.15999999999997 A 42.52 42.52 0 0 0 765.36 297.64 L 722.84 297.64L722.84 340.15999999999997" fill="#5be218"/><rect x="0" y="340.16" width="42.52" height="42.52" fill="#fff533"/><path d="M 0 382.68 A 42.52 42.52 0 0 1  42.52 340.16 L 42.52 382.68L0 382.68" fill="#5be218"/><rect x="42.52" y="340.16" width="42.52" height="42.52" fill="#ffffff"/><rect x="42.52" y="340.16" width="21.26" height="21.26" fill="#fff533"/><path d="M 42.52 361.42 A 21.26 21.26 0 0 0 63.78 340.16 L 42.52 340.16L42.52 361.42" fill="#fff533"/><rect x="63.78" y="340.16" width="21.26" height="21.26" fill="#fff533"/><path d="M 63.78 361.42 A 21.26 21.26 0 0 0 85.04 340.16 L 63.78 340.16L63.78 361.42" fill="#fff533"/><rect x="42.52" y="361.42" width="21.26" height="21.26" fill="#5be218"/><path d="M 42.52 361.42 A 21.26 21.26 0 0 1 63.78 382.68 L 42.52 382.68L42.52 361.42" fill="#fff533"/><rect x="63.78" y="361.42" width="21.26" height="21.26" fill="#fff533"/><path d="M 63.78 361.42 A 21.26 21.26 0 0 1 85.04 382.68 L 63.78 382.68L63.78 361.42" fill="#fff533"/><rect x="85.04" y="340.16" width="42.52" height="42.52" fill="#ffffff"/><rect x="85.04" y="340.16" width="21.26" height="21.26" fill="#5be218"/><path d="M 85.04 340.16 A 21.26 21.26 0 0 1  106.30000000000001 361.42 L 85.04 340.16 A 21.26 21.26 0 0 0 106.30000000000001 361.42" fill="#fff533"/><rect x="106.3" y="340.16" width="21.26" height="21.26" fill="#5be218"/><path d="M 106.3 361.42 A 21.26 21.26 0 0 0 127.56 340.16 L 106.3 340.16L106.3 361.42" fill="#5be218"/><rect x="85.04" y="361.42" width="21.26" height="21.26" fill="#5be218"/><path d="M 85.04 361.42 A 21.26 21.26 0 0 1  106.30000000000001 382.68 L 85.04 361.42 A 21.26 21.26 0 0 0 106.30000000000001 382.68" fill="#fff533"/><rect x="106.3" y="361.42" width="21.26" height="21.26" fill="#fff533"/><path d="M 106.3 382.68 A 21.26 21.26 0 0 1  127.56 361.42 L 106.3 382.68 A 21.26 21.26 0 0 0 127.56 361.42" fill="#fff533"/><rect x="127.56" y="340.16" width="42.52" height="42.52" fill="#fff533"/><path d="M 127.56 340.16 A 42.52 42.52 0 0 0 170.08 382.68 L 170.08 340.16L127.56 340.16" fill="#5be218"/><rect x="170.08" y="340.16" width="42.52" height="42.52" fill="#fff533"/><path d="M 170.08 382.68 A 42.52 42.52 0 0 1  212.60000000000002 340.16 L 212.60000000000002 382.68L170.08 382.68" fill="#5be218"/><rect x="212.6" y="340.16" width="42.52" height="42.52" fill="#5be218"/><path d="M 212.6 340.16 A 42.52 42.52 0 0 0 255.12 382.68 L 255.12 340.16L212.6 340.16" fill="#fff533"/><rect x="255.12" y="340.16" width="42.52" height="42.52" fill="#ffffff"/><rect x="255.12" y="340.16" width="21.26" height="21.26" fill="#fff533"/><path d="M 255.12 361.42 A 21.26 21.26 0 0 1  276.38 340.16 L 255.12 361.42 A 21.26 21.26 0 0 0 276.38 340.16" fill="#fff533"/><rect x="276.38" y="340.16" width="21.26" height="21.26" fill="#5be218"/><path d="M 276.38 340.16 A 21.26 21.26 0 0 1 297.64 361.42 L 276.38 361.42L276.38 340.16" fill="#5be218"/><rect x="255.12" y="361.42" width="21.26" height="21.26" fill="#fff533"/><path d="M 255.12 382.68 A 21.26 21.26 0 0 0 276.38 361.42 L 255.12 361.42L255.12 382.68" fill="#5be218"/><rect x="276.38" y="361.42" width="21.26" height="21.26" fill="#5be218"/><path d="M 276.38 361.42 A 21.26 21.26 0 0 0 297.64 382.68 L 297.64 361.42L276.38 361.42" fill="#fff533"/><rect x="297.64000000000004" y="340.16" width="42.52" height="42.52" fill="#ffffff"/><rect x="297.64" y="340.16" width="21.26" height="21.26" fill="#5be218"/><path d="M 297.64 361.42 A 21.26 21.26 0 0 1  318.9 340.16 L 297.64 361.42 A 21.26 21.26 0 0 0 318.9 340.16" fill="#fff533"/><rect x="318.9" y="340.16" width="21.26" height="21.26" fill="#fff533"/><path d="M 318.9 340.16 A 21.26 21.26 0 0 1  340.15999999999997 361.42 L 318.9 340.16 A 21.26 21.26 0 0 0 340.15999999999997 361.42" fill="#5be218"/><rect x="297.64" y="361.42" width="21.26" height="21.26" fill="#5be218"/><path d="M 297.64 361.42 A 21.26 21.26 0 0 1 318.9 382.68 L 297.64 382.68L297.64 361.42" fill="#5be218"/><rect x="318.9" y="361.42" width="21.26" height="21.26" fill="#fff533"/><path d="M 318.9 361.42 A 21.26 21.26 0 0 1 340.15999999999997 382.68 L 318.9 382.68L318.9 361.42" fill="#fff533"/><rect x="340.16" y="340.16" width="42.52" height="42.52" fill="#ffffff"/><rect x="340.16" y="340.16" width="21.26" height="21.26" fill="#fff533"/><path d="M 340.16 340.16 A 21.26 21.26 0 0 0 361.42 361.42 L 361.42 340.16L340.16 340.16" fill="#5be218"/><rect x="361.42" y="340.16" width="21.26" height="21.26" fill="#fff533"/><path d="M 361.42 361.42 A 21.26 21.26 0 0 1  382.68 340.16 L 361.42 361.42 A 21.26 21.26 0 0 0 382.68 340.16" fill="#fff533"/><rect x="340.16" y="361.42" width="21.26" height="21.26" fill="#5be218"/><path d="M 340.16 382.68 A 21.26 21.26 0 0 1  361.42 361.42 L 361.42 382.68L340.16 382.68" fill="#5be218"/><rect x="361.42" y="361.42" width="21.26" height="21.26" fill="#5be218"/><path d="M 361.42 382.68 A 21.26 21.26 0 0 0 382.68 361.42 L 361.42 361.42L361.42 382.68" fill="#fff533"/><rect x="382.68" y="340.16" width="42.52" height="42.52" fill="#5be218"/><path d="M 382.68 340.16 A 42.52 42.52 0 0 1  425.2 382.68 L 382.68 340.16 A 42.52 42.52 0 0 0 425.2 382.68" fill="#5be218"/><rect x="425.2" y="340.16" width="42.52" height="42.52" fill="#5be218"/><path d="M 425.2 340.16 A 42.52 42.52 0 0 1  467.71999999999997 382.68 L 425.2 340.16 A 42.52 42.52 0 0 0 467.71999999999997 382.68" fill="#5be218"/><rect x="467.72" y="340.16" width="42.52" height="42.52" fill="#fff533"/><path d="M 467.72 340.16 A 42.52 42.52 0 0 0 510.24 382.68 L 510.24 340.16L467.72 340.16" fill="#5be218"/><rect x="510.24" y="340.16" width="42.52" height="42.52" fill="#ffffff"/><rect x="510.24" y="340.16" width="21.26" height="21.26" fill="#5be218"/><path d="M 510.24 340.16 A 21.26 21.26 0 0 1 531.5 361.42 L 510.24 361.42L510.24 340.16" fill="#5be218"/><rect x="531.5" y="340.16" width="21.26" height="21.26" fill="#fff533"/><path d="M 531.5 361.42 A 21.26 21.26 0 0 1  552.76 340.16 L 531.5 361.42 A 21.26 21.26 0 0 0 552.76 340.16" fill="#fff533"/><rect x="510.24" y="361.42" width="21.26" height="21.26" fill="#fff533"/><path d="M 510.24 361.42 A 21.26 21.26 0 0 0 531.5 382.68 L 531.5 361.42L510.24 361.42" fill="#5be218"/><rect x="531.5" y="361.42" width="21.26" height="21.26" fill="#5be218"/><path d="M 531.5 361.42 A 21.26 21.26 0 0 1  552.76 382.68 L 531.5 361.42 A 21.26 21.26 0 0 0 552.76 382.68" fill="#5be218"/><rect x="552.76" y="340.16" width="42.52" height="42.52" fill="#ffffff"/><rect x="552.76" y="340.16" width="21.26" height="21.26" fill="#5be218"/><path d="M 552.76 361.42 A 21.26 21.26 0 0 1  574.02 340.16 L 552.76 361.42 A 21.26 21.26 0 0 0 574.02 340.16" fill="#5be218"/><rect x="574.02" y="340.16" width="21.26" height="21.26" fill="#5be218"/><path d="M 574.02 340.16 A 21.26 21.26 0 0 1 595.28 361.42 L 574.02 361.42L574.02 340.16" fill="#5be218"/><rect x="552.76" y="361.42" width="21.26" height="21.26" fill="#fff533"/><path d="M 552.76 382.68 A 21.26 21.26 0 0 1  574.02 361.42 L 574.02 382.68L552.76 382.68" fill="#5be218"/><rect x="574.02" y="361.42" width="21.26" height="21.26" fill="#5be218"/><path d="M 574.02 361.42 A 21.26 21.26 0 0 1 595.28 382.68 L 574.02 382.68L574.02 361.42" fill="#fff533"/><rect x="595.2800000000001" y="340.16" width="42.52" height="42.52" fill="#ffffff"/><rect x="595.28" y="340.16" width="21.26" height="21.26" fill="#5be218"/><path d="M 595.28 361.42 A 21.26 21.26 0 0 0 616.54 340.16 L 595.28 340.16L595.28 361.42" fill="#fff533"/><rect x="616.54" y="340.16" width="21.26" height="21.26" fill="#fff533"/><path d="M 616.54 340.16 A 21.26 21.26 0 0 1 637.8 361.42 L 616.54 361.42L616.54 340.16" fill="#5be218"/><rect x="595.28" y="361.42" width="21.26" height="21.26" fill="#5be218"/><path d="M 595.28 361.42 A 21.26 21.26 0 0 0 616.54 382.68 L 616.54 361.42L595.28 361.42" fill="#fff533"/><rect x="616.54" y="361.42" width="21.26" height="21.26" fill="#5be218"/><path d="M 616.54 361.42 A 21.26 21.26 0 0 0 637.8 382.68 L 637.8 361.42L616.54 361.42" fill="#5be218"/><rect x="637.8" y="340.16" width="42.52" height="42.52" fill="#fff533"/><path d="M 637.8 382.68 A 42.52 42.52 0 0 0 680.3199999999999 340.16 L 637.8 340.16L637.8 382.68" fill="#5be218"/><rect x="680.32" y="340.16" width="42.52" height="42.52" fill="#ffffff"/><rect x="680.32" y="340.16" width="21.26" height="21.26" fill="#fff533"/><path d="M 680.32 361.42 A 21.26 21.26 0 0 1  701.58 340.16 L 701.58 361.42L680.32 361.42" fill="#fff533"/><rect x="701.58" y="340.16" width="21.26" height="21.26" fill="#5be218"/><path d="M 701.58 340.16 A 21.26 21.26 0 0 1  722.84 361.42 L 701.58 340.16 A 21.26 21.26 0 0 0 722.84 361.42" fill="#fff533"/><rect x="680.32" y="361.42" width="21.26" height="21.26" fill="#fff533"/><path d="M 680.32 361.42 A 21.26 21.26 0 0 0 701.58 382.68 L 701.58 361.42L680.32 361.42" fill="#fff533"/><rect x="701.58" y="361.42" width="21.26" height="21.26" fill="#fff533"/><path d="M 701.58 382.68 A 21.26 21.26 0 0 1  722.84 361.42 L 722.84 382.68L701.58 382.68" fill="#5be218"/><rect x="722.84" y="340.16" width="42.52" height="42.52" fill="#ffffff"/><rect x="722.84" y="340.16" width="21.26" height="21.26" fill="#5be218"/><path d="M 722.84 361.42 A 21.26 21.26 0 0 1  744.1 340.16 L 744.1 361.42L722.84 361.42" fill="#5be218"/><rect x="744.1" y="340.16" width="21.26" height="21.26" fill="#5be218"/><path d="M 744.1 361.42 A 21.26 21.26 0 0 1  765.36 340.16 L 744.1 361.42 A 21.26 21.26 0 0 0 765.36 340.16" fill="#fff533"/><rect x="722.84" y="361.42" width="21.26" height="21.26" fill="#5be218"/><path d="M 722.84 382.68 A 21.26 21.26 0 0 1  744.1 361.42 L 722.84 382.68 A 21.26 21.26 0 0 0 744.1 361.42" fill="#5be218"/><rect x="744.1" y="361.42" width="21.26" height="21.26" fill="#fff533"/><path d="M 744.1 361.42 A 21.26 21.26 0 0 1  765.36 382.68 L 744.1 361.42 A 21.26 21.26 0 0 0 765.36 382.68" fill="#5be218"/><rect x="0" y="382.68" width="42.52" height="42.52" fill="#5be218"/><path d="M 0 425.2 A 42.52 42.52 0 0 1  42.52 382.68 L 42.52 425.2L0 425.2" fill="#fff533"/><rect x="42.52" y="382.68" width="42.52" height="42.52" fill="#5be218"/><path d="M 42.52 382.68 A 42.52 42.52 0 0 1 85.04 425.2 L 42.52 425.2L42.52 382.68" fill="#5be218"/><rect x="85.04" y="382.68" width="42.52" height="42.52" fill="#ffffff"/><rect x="85.04" y="382.68" width="21.26" height="21.26" fill="#fff533"/><path d="M 85.04 403.94 A 21.26 21.26 0 0 1  106.30000000000001 382.68 L 85.04 403.94 A 21.26 21.26 0 0 0 106.30000000000001 382.68" fill="#fff533"/><rect x="106.3" y="382.68" width="21.26" height="21.26" fill="#5be218"/><path d="M 106.3 403.94 A 21.26 21.26 0 0 0 127.56 382.68 L 106.3 382.68L106.3 403.94" fill="#fff533"/><rect x="85.04" y="403.94" width="21.26" height="21.26" fill="#fff533"/><path d="M 85.04 425.2 A 21.26 21.26 0 0 0 106.30000000000001 403.94 L 85.04 403.94L85.04 425.2" fill="#fff533"/><rect x="106.3" y="403.94" width="21.26" height="21.26" fill="#fff533"/><path d="M 106.3 403.94 A 21.26 21.26 0 0 1  127.56 425.2 L 106.3 403.94 A 21.26 21.26 0 0 0 127.56 425.2" fill="#fff533"/><rect x="127.56" y="382.68" width="42.52" height="42.52" fill="#fff533"/><path d="M 127.56 382.68 A 42.52 42.52 0 0 0 170.08 425.2 L 170.08 382.68L127.56 382.68" fill="#fff533"/><rect x="170.08" y="382.68" width="42.52" height="42.52" fill="#ffffff"/><rect x="170.08" y="382.68" width="21.26" height="21.26" fill="#5be218"/><path d="M 170.08 382.68 A 21.26 21.26 0 0 0 191.34 403.94 L 191.34 382.68L170.08 382.68" fill="#fff533"/><rect x="191.34" y="382.68" width="21.26" height="21.26" fill="#fff533"/><path d="M 191.34 382.68 A 21.26 21.26 0 0 1 212.6 403.94 L 191.34 403.94L191.34 382.68" fill="#5be218"/><rect x="170.08" y="403.94" width="21.26" height="21.26" fill="#fff533"/><path d="M 170.08 403.94 A 21.26 21.26 0 0 1  191.34 425.2 L 170.08 403.94 A 21.26 21.26 0 0 0 191.34 425.2" fill="#5be218"/><rect x="191.34" y="403.94" width="21.26" height="21.26" fill="#5be218"/><path d="M 191.34 425.2 A 21.26 21.26 0 0 0 212.6 403.94 L 191.34 403.94L191.34 425.2" fill="#5be218"/><rect x="212.60000000000002" y="382.68" width="42.52" height="42.52" fill="#ffffff"/><rect x="212.6" y="382.68" width="21.26" height="21.26" fill="#5be218"/><path d="M 212.6 403.94 A 21.26 21.26 0 0 1  233.85999999999999 382.68 L 233.85999999999999 403.94L212.6 403.94" fill="#fff533"/><rect x="233.86" y="382.68" width="21.26" height="21.26" fill="#fff533"/><path d="M 233.86 382.68 A 21.26 21.26 0 0 1 255.12 403.94 L 233.86 403.94L233.86 382.68" fill="#fff533"/><rect x="212.6" y="403.94" width="21.26" height="21.26" fill="#5be218"/><path d="M 212.6 425.2 A 21.26 21.26 0 0 1  233.85999999999999 403.94 L 233.85999999999999 425.2L212.6 425.2" fill="#fff533"/><rect x="233.86" y="403.94" width="21.26" height="21.26" fill="#5be218"/><path d="M 233.86 425.2 A 21.26 21.26 0 0 1  255.12 403.94 L 233.86 425.2 A 21.26 21.26 0 0 0 255.12 403.94" fill="#5be218"/><rect x="255.12" y="382.68" width="42.52" height="42.52" fill="#fff533"/><path d="M 255.12 425.2 A 42.52 42.52 0 0 1  297.64 382.68 L 255.12 425.2 A 42.52 42.52 0 0 0 297.64 382.68" fill="#5be218"/><rect x="297.64" y="382.68" width="42.52" height="42.52" fill="#fff533"/><path d="M 297.64 425.2 A 42.52 42.52 0 0 1  340.15999999999997 382.68 L 297.64 425.2 A 42.52 42.52 0 0 0 340.15999999999997 382.68" fill="#fff533"/><rect x="340.16" y="382.68" width="42.52" height="42.52" fill="#5be218"/><path d="M 340.16 425.2 A 42.52 42.52 0 0 1  382.68 382.68 L 340.16 425.2 A 42.52 42.52 0 0 0 382.68 382.68" fill="#5be218"/><rect x="382.68" y="382.68" width="42.52" height="42.52" fill="#ffffff"/><rect x="382.68" y="382.68" width="21.26" height="21.26" fill="#5be218"/><path d="M 382.68 382.68 A 21.26 21.26 0 0 1  403.94 403.94 L 382.68 382.68 A 21.26 21.26 0 0 0 403.94 403.94" fill="#5be218"/><rect x="403.94" y="382.68" width="21.26" height="21.26" fill="#fff533"/><path d="M 403.94 382.68 A 21.26 21.26 0 0 0 425.2 403.94 L 425.2 382.68L403.94 382.68" fill="#fff533"/><rect x="382.68" y="403.94" width="21.26" height="21.26" fill="#fff533"/><path d="M 382.68 403.94 A 21.26 21.26 0 0 1  403.94 425.2 L 382.68 403.94 A 21.26 21.26 0 0 0 403.94 425.2" fill="#fff533"/><rect x="403.94" y="403.94" width="21.26" height="21.26" fill="#fff533"/><path d="M 403.94 425.2 A 21.26 21.26 0 0 0 425.2 403.94 L 403.94 403.94L403.94 425.2" fill="#5be218"/><rect x="425.20000000000005" y="382.68" width="42.52" height="42.52" fill="#ffffff"/><rect x="425.2" y="382.68" width="21.26" height="21.26" fill="#5be218"/><path d="M 425.2 403.94 A 21.26 21.26 0 0 1  446.46 382.68 L 425.2 403.94 A 21.26 21.26 0 0 0 446.46 382.68" fill="#fff533"/><rect x="446.46" y="382.68" width="21.26" height="21.26" fill="#fff533"/><path d="M 446.46 382.68 A 21.26 21.26 0 0 1  467.71999999999997 403.94 L 446.46 382.68 A 21.26 21.26 0 0 0 467.71999999999997 403.94" fill="#5be218"/><rect x="425.2" y="403.94" width="21.26" height="21.26" fill="#fff533"/><path d="M 425.2 403.94 A 21.26 21.26 0 0 1  446.46 425.2 L 425.2 403.94 A 21.26 21.26 0 0 0 446.46 425.2" fill="#5be218"/><rect x="446.46" y="403.94" width="21.26" height="21.26" fill="#5be218"/><path d="M 446.46 425.2 A 21.26 21.26 0 0 1  467.71999999999997 403.94 L 467.71999999999997 425.2L446.46 425.2" fill="#5be218"/><rect x="467.72" y="382.68" width="42.52" height="42.52" fill="#5be218"/><path d="M 467.72 382.68 A 42.52 42.52 0 0 1 510.24 425.2 L 467.72 425.2L467.72 382.68" fill="#5be218"/><rect x="510.24" y="382.68" width="42.52" height="42.52" fill="#fff533"/><path d="M 510.24 425.2 A 42.52 42.52 0 0 1  552.76 382.68 L 552.76 425.2L510.24 425.2" fill="#5be218"/><rect x="552.76" y="382.68" width="42.52" height="42.52" fill="#ffffff"/><rect x="552.76" y="382.68" width="21.26" height="21.26" fill="#fff533"/><path d="M 552.76 403.94 A 21.26 21.26 0 0 0 574.02 382.68 L 552.76 382.68L552.76 403.94" fill="#5be218"/><rect x="574.02" y="382.68" width="21.26" height="21.26" fill="#5be218"/><path d="M 574.02 403.94 A 21.26 21.26 0 0 1  595.28 382.68 L 574.02 403.94 A 21.26 21.26 0 0 0 595.28 382.68" fill="#fff533"/><rect x="552.76" y="403.94" width="21.26" height="21.26" fill="#fff533"/><path d="M 552.76 425.2 A 21.26 21.26 0 0 1  574.02 403.94 L 552.76 425.2 A 21.26 21.26 0 0 0 574.02 403.94" fill="#5be218"/><rect x="574.02" y="403.94" width="21.26" height="21.26" fill="#5be218"/><path d="M 574.02 425.2 A 21.26 21.26 0 0 1  595.28 403.94 L 574.02 425.2 A 21.26 21.26 0 0 0 595.28 403.94" fill="#fff533"/><rect x="595.2800000000001" y="382.68" width="42.52" height="42.52" fill="#ffffff"/><rect x="595.28" y="382.68" width="21.26" height="21.26" fill="#5be218"/><path d="M 595.28 382.68 A 21.26 21.26 0 0 1 616.54 403.94 L 595.28 403.94L595.28 382.68" fill="#fff533"/><rect x="616.54" y="382.68" width="21.26" height="21.26" fill="#fff533"/><path d="M 616.54 382.68 A 21.26 21.26 0 0 1  637.8 403.94 L 616.54 382.68 A 21.26 21.26 0 0 0 637.8 403.94" fill="#fff533"/><rect x="595.28" y="403.94" width="21.26" height="21.26" fill="#fff533"/><path d="M 595.28 425.2 A 21.26 21.26 0 0 0 616.54 403.94 L 595.28 403.94L595.28 425.2" fill="#fff533"/><rect x="616.54" y="403.94" width="21.26" height="21.26" fill="#5be218"/><path d="M 616.54 425.2 A 21.26 21.26 0 0 1  637.8 403.94 L 616.54 425.2 A 21.26 21.26 0 0 0 637.8 403.94" fill="#fff533"/><rect x="637.8" y="382.68" width="42.52" height="42.52" fill="#5be218"/><path d="M 637.8 382.68 A 42.52 42.52 0 0 1 680.3199999999999 425.2 L 637.8 425.2L637.8 382.68" fill="#fff533"/><rect x="680.32" y="382.68" width="42.52" height="42.52" fill="#5be218"/><path d="M 680.32 425.2 A 42.52 42.52 0 0 0 722.84 382.68 L 680.32 382.68L680.32 425.2" fill="#fff533"/><rect x="722.84" y="382.68" width="42.52" height="42.52" fill="#fff533"/><path d="M 722.84 425.2 A 42.52 42.52 0 0 0 765.36 382.68 L 722.84 382.68L722.84 425.2" fill="#5be218"/></g></svg>